SplineFontDB: 3.2
FontName: RKLirioDoVale-Regular
FullName: RK Lirio do Vale Regular
FamilyName: Lirio do Vale
Weight: Regular
Copyright: Copyright (c) 2015, Luis Walker
UComments: "2015-7-4: Created with FontForge (http://fontforge.org)"
Version: 001.001
ItalicAngle: 0
UnderlinePosition: -100
UnderlineWidth: 50
Ascent: 700
Descent: 300
InvalidEm: 0
LayerCount: 2
Layer: 0 0 "Back" 1
Layer: 1 0 "Fore" 0
XUID: [1021 1010 -1317725610 8461834]
StyleMap: 0x0000
FSType: 0
OS2Version: 0
OS2_WeightWidthSlopeOnly: 0
OS2_UseTypoMetrics: 1
CreationTime: 1436019825
ModificationTime: 1713127634
OS2TypoAscent: 0
OS2TypoAOffset: 1
OS2TypoDescent: 0
OS2TypoDOffset: 1
OS2TypoLinegap: 90
OS2WinAscent: 0
OS2WinAOffset: 1
OS2WinDescent: 0
OS2WinDOffset: 1
HheadAscent: 0
HheadAOffset: 1
HheadDescent: 0
HheadDOffset: 1
MarkAttachClasses: 1
DEI: 91125
LangName: 1033
Encoding: UnicodeBmp
UnicodeInterp: none
NameList: AGL For New Fonts
DisplaySize: -48
AntiAlias: 1
FitToEm: 1
WinInfo: 84 21 10
BeginPrivate: 0
EndPrivate
Grid
-43 604 m 1
 301 604 l 1
 301 604 l 1
 -43 604 l 1
 -43 604 l 1
-39 467 m 1
 305 467 l 1
 305 467 l 1
 -39 467 l 1
 -39 467 l 1
-37 329 m 1
 312 329 l 1
 312 329 l 1
 -37 329 l 1
 -37 329 l 1
-42 200 m 1
 312 200 l 1
 312 200 l 1
 -42 200 l 1
 -42 200 l 1
-36 -202 m 1
 297 -202 l 1
 297 -202 l 1
 -36 -202 l 1
 -36 -202 l 1
EndSplineSet
TeXData: 1 0 0 346030 173015 115343 0 1048576 115343 783286 444596 497025 792723 393216 433062 380633 303038 157286 324010 404750 52429 2506097 1059062 262144
BeginChars: 65537 102

StartChar: o
Encoding: 111 111 0
Width: 333
VWidth: 0
Flags: W
HStem: -8 52<122.119 209.097> 302 47<114.949 207.195>
VStem: 30 62<76.4045 241.407> 236 67<99.5124 270.144>
LayerCount: 2
Fore
SplineSet
161 302 m 3
 105.2734375 302 92 245 92 171 c 3
 92 95 122 44 161 44 c 3
 224 44 236 103 236 172 c 3
 236 239 216 302 161 302 c 3
30 141 m 3
 30 227.323242188 85 349 177 349 c 3
 242 349 303 297 303 196 c 3
 303 87 223 -8 143 -8 c 3
 70.97265625 -8 30 72 30 141 c 3
EndSplineSet
Validated: 524289
EndChar

StartChar: n
Encoding: 110 110 1
Width: 355
VWidth: 0
Flags: W
HStem: -9 55<263 313.273> 290 58<200.205 258.5>
VStem: 54 51<177 321.958> 223 55<46.283 271.715> 238 57<86.4542 289.772>
LayerCount: 2
Fore
SplineSet
68 -10 m 1xe8
 37 13 l 17
 37 13 54 116 54 183 c 3
 54 264 40 322 40 322 c 1
 74 346 l 1
 91 330 l 1
 91 330 105 266 105 177 c 1
 126.057617188 222.354492188 183.73046875 348 245 348 c 3
 272 348 295 314 295 287 c 3xe8
 295 214 278 161 278 99 c 3
 278 79 278 46 286 46 c 3
 295 46 301 48 305 55 c 1
 333 24 l 17
 318 10 304 -9 278 -9 c 3
 248 -9 223 38 223 68 c 3xf0
 223 131.866210938 238 216.479492188 238 262 c 3
 238 279.9140625 230.415039062 290 220 290 c 3
 204.791015625 290 125.075195312 175.965820312 97 82 c 1
 94 16 l 1
 68 -10 l 1xe8
EndSplineSet
Validated: 524289
EndChar

StartChar: i
Encoding: 105 105 2
Width: 193
VWidth: 0
Flags: W
HStem: -8 55<102.998 153.273> 326 20G<58.1615 110.969> 403 68<50.3894 114.335>
VStem: 45 74<406.766 465.238> 58 60.1299<47.7077 181.351> 65 59.9688<70.7134 321.958>
LayerCount: 2
Back
SplineSet
65.2841796875 206 m 21xb4
 33.2841796875 191 -39.7158203125 143.931640625 -39.7158203125 84 c 7
 -39.7158203125 64.6865234375 -22.7158203125 50 -5.7158203125 50 c 7
 22.2841796875 50 42.2841796875 63 58.2841796875 80 c 5
 65.2841796875 206 l 21xb4
-17.7158203125 240 m 5
 -52.7158203125 218 l 5
 -52.7158203125 218 -68.7158203125 238 -68.7158203125 256 c 7
 -68.7158203125 306 -4.8447265625 347 49.2841796875 347 c 7
 97.2841796875 347 123.284179688 299 123.284179688 261 c 7xaa
 123.284179688 179 118.284179688 160 118.284179688 78 c 7
 118.284179688 62 123.284179688 35 139.284179688 35 c 7
 151.284179688 35 159.284179688 44 170.284179688 56 c 5
 193.284179688 29 l 5
 180.284179688 11 161.284179688 -6 131.284179688 -6 c 31x64
 97.2841796875 -6 76.2841796875 17 65.2841796875 39 c 5
 45.2841796875 18 24.2841796875 -6 -10.7158203125 -6 c 23
 -44.978515625 -6 -96.7158203125 43.3671875 -96.7158203125 77 c 7xb4
 -96.7158203125 160.45703125 18.2841796875 218 68.2841796875 245 c 5
 68.2841796875 245 70.2841796875 263 70.2841796875 274 c 7
 70.2841796875 291 64.2841796875 314 39.2841796875 314 c 7
 1.2841796875 314 -28.7158203125 296 -28.7158203125 266 c 7xaa
 -28.7158203125 255 -17.7158203125 240 -17.7158203125 240 c 5
EndSplineSet
Fore
SplineSet
78 471 m 7xf0
 97 471 119 453 119 434 c 7
 119 417 100 403 83 403 c 7
 66 403 45 417 45 434 c 7
 45 448 64 471 78 471 c 7xf0
65 183 m 3xe4
 65 264 51 322 51 322 c 1
 93.96875 346 l 1
 110.96875 330 l 1
 110.96875 330 124.96875 266 124.96875 177 c 3xe4
 124.96875 147.483398438 118.129882812 116.685546875 118.129882812 86.64453125 c 3
 118.129882812 77.6357421875 118.516601562 47 126 47 c 3
 135 47 141 49 145 56 c 1
 173 25 l 1
 158 11 144 -8 118 -8 c 3
 87.99609375 -8 58 35.2705078125 58 69 c 3xe8
 58 105.459960938 65 147.94140625 65 183 c 3xe4
EndSplineSet
Validated: 524289
EndChar

StartChar: a
Encoding: 97 97 4
Width: 301
VWidth: 0
Flags: W
HStem: -9 55<83.5963 156.89 225.489 271.273> 299 48<96.7319 185.653>
VStem: 22 57<52.9739 135.843> 50 40<230.326 287.655> 189 53<155.906 297.75>
LayerCount: 2
Fore
SplineSet
101 240 m 1xd8
 66 218 l 1
 66 218 50 238 50 256 c 0xd8
 50 306 113.87109375 347 168 347 c 0
 216 347 242 299 242 261 c 0
 242 179 237 160 237 78 c 0
 237 65.2373046875 237.615234375 46 244 46 c 3
 253 46 259 48 263 55 c 1
 291 24 l 1
 276 10 262 -9 236 -9 c 3
 214.977539062 -9 193.954101562 14.080078125 183.254882812 38.216796875 c 1
 163.4765625 17.408203125 142.565429688 -6 108 -6 c 0
 73.7373046875 -6 22 43.3671875 22 77 c 0xe8
 22 160.45703125 137 203 187 230 c 1
 187 230 189 248 189 259 c 0
 189 276 183 299 158 299 c 0
 120 299 90 281 90 266 c 0
 90 255 101 240 101 240 c 1xd8
184 191 m 1
 152 176 79 143.931640625 79 84 c 0xe8
 79 64.6865234375 96 50 113 50 c 0
 141 50 161 63 177 80 c 1
 184 191 l 1
EndSplineSet
Validated: 524289
EndChar

StartChar: s
Encoding: 115 115 5
Width: 243
VWidth: 0
Flags: W
HStem: -5 55<75.2695 171.492> 317 30<95.5115 154.748>
VStem: 32 52<238.438 310.22> 180 48<60.419 125.239>
LayerCount: 2
Back
SplineSet
54 206 m 17xb4
 86 191 159 143.931640625 159 84 c 3
 159 64.6865234375 142 50 125 50 c 3
 97 50 77 63 61 80 c 1
 54 206 l 17xb4
137 240 m 1
 172 218 l 1
 172 218 188 238 188 256 c 3
 188 306 124.12890625 347 70 347 c 3
 22 347 -4 299 -4 261 c 3xaa
 -4 179 1 160 1 78 c 3
 1 62 -4 35 -20 35 c 3
 -32 35 -40 44 -51 56 c 1
 -74 29 l 1
 -61 11 -42 -6 -12 -6 c 27x64
 22 -6 43 17 54 39 c 1
 74 18 95 -6 130 -6 c 19
 164.262695312 -6 216 43.3671875 216 77 c 3xb4
 216 160.45703125 101 218 51 245 c 1
 51 245 49 263 49 274 c 3
 49 291 55 314 80 314 c 3
 118 314 148 296 148 266 c 3xaa
 148 255 137 240 137 240 c 1
EndSplineSet
Fore
SplineSet
15 91 m 1
 37 111 l 1
 37 111 70 50 124 50 c 3
 155 50 180 73 180 91 c 3
 180 145 32 175 32 266 c 3
 32 314 92 347 128 347 c 3
 177.163085938 347 213 314 213 314 c 1
 199 269 l 1
 174 272 l 1
 174 272 155 317 132 317 c 3
 96 317 84 291 84 272 c 3
 84 222 228 188 228 106 c 3
 228 67 178 -5 121 -5 c 3
 70 -5 15 91 15 91 c 1
EndSplineSet
Validated: 524289
EndChar

StartChar: l
Encoding: 108 108 6
Width: 184
VWidth: 0
Flags: HMW
LayerCount: 2
Fore
SplineSet
59 456 m 0
 59 537 45 595 45 595 c 1
 84.96875 619 l 1
 101.96875 603 l 1
 101.96875 603 115.96875 539 115.96875 450 c 2
 109.161132812 80.7255859375 l 2
 109.591796875 63.4931640625 111.17578125 46 117 46 c 0
 126 46 132 48 136 55 c 1
 164 24 l 1
 153 7 135 -9 109 -9 c 0
 77.869140625 -9 52 34.7158203125 52 68 c 0
 52.2275390625 112.494140625 59 420.166992188 59 456 c 0
EndSplineSet
Validated: 524289
EndChar

StartChar: b
Encoding: 98 98 7
Width: 328
VWidth: 0
Flags: W
HStem: -6 41<114.925 201.084> 302 47<124.311 213.427>
VStem: 39.873 54.0352<54.4952 274.525> 49 53.9688<280.929 617.314> 231.873 67<100.978 285.555>
LayerCount: 2
Fore
SplineSet
95.87109375 300.297851562 m 1xd8
 118.751953125 329.375 151.92578125 349 188.873046875 349 c 3
 253.873046875 349 298.873046875 297 298.873046875 196 c 3
 298.873046875 87 214.873046875 -6 134.873046875 -6 c 3
 88.4521484375 -6 39.873046875 35.3876953125 39.873046875 69 c 0xe8
 39.873046875 133.674804688 49 396.38671875 49 474.358398438 c 3
 49 555.358398438 35 613.358398438 35 613.358398438 c 1
 74.96875 637.358398438 l 1
 88.96875 621.358398438 l 1
 88.96875 621.358398438 102.96875 557.358398438 102.96875 468.358398438 c 0
 100.323242188 412.233398438 96.4931640625 357.71875 95.87109375 300.297851562 c 1xd8
93.908203125 90.3525390625 m 1
 106.290039062 56.6240234375 129.459960938 35 152.873046875 35 c 3
 215.873046875 35 231.873046875 103 231.873046875 172 c 3
 231.873046875 239 227.873046875 302 172.873046875 302 c 3
 138.791992188 302 110.108398438 280.6796875 95.298828125 247.189453125 c 1
 94.62890625 184.341796875 94.052734375 126.307617188 93.908203125 90.3525390625 c 1
EndSplineSet
Validated: 524289
EndChar

StartChar: e
Encoding: 101 101 8
Width: 273
VWidth: 0
Flags: W
HStem: -12 56<121.394 193.942> 309 40<131.392 202.315>
VStem: 185 50<232.386 308.893>
LayerCount: 2
Back
SplineSet
180 302 m 3
 124.2734375 302 91 245 91 171 c 3
 91 95 121 44 160 44 c 3
 223 44 255 103 255 172 c 3
 255 239 235 302 180 302 c 3
29 141 m 3
 29 227.323242188 104 349 196 349 c 3
 261 349 322 297 322 196 c 3
 322 87 222 -14 142 -14 c 3
 69.97265625 -14 29 72 29 141 c 3
EndSplineSet
Fore
SplineSet
88 178 m 1
 114 190 185 226 185 283 c 3
 185 300 179 309 162 309 c 3
 111 309 88 178 88 178 c 1
235 88 m 1
 251 74 l 1
 251 74 199 -12 140 -12 c 3
 74 -12 30 69.9931640625 30 146 c 3
 30 242 118 349 184 349 c 3
 220 349 235 326 235 290 c 3
 235 211 122 159 91 146 c 1
 101 101 115 44 164 44 c 3
 208 44 235 88 235 88 c 1
EndSplineSet
Validated: 524289
EndChar

StartChar: p
Encoding: 112 112 9
Width: 344
VWidth: 0
Flags: W
HStem: -6 41<131.33 216.211> 302 47<157.253 228.553>
VStem: 60.0293 52.0059<52.8445 268.776> 247 67<100.978 285.555>
LayerCount: 2
Fore
SplineSet
204 349 m 0
 269 349 314 297 314 196 c 0
 314 87 230 -6 150 -6 c 0
 134.024414062 -6 117.4375 -1.09765625 102.551757812 6.7021484375 c 1
 102.838867188 -2.212890625 103 -11.462890625 103 -21 c 0
 103 -73.978515625 93.619140625 -126.286132812 92 -182 c 1
 66 -208 l 1
 35 -185 l 1
 47.349609375 -110.171875 57.029296875 61.5126953125 60.029296875 183.700195312 c 0
 59.9482421875 264.333984375 46.029296875 322 46.029296875 322 c 1
 81.998046875 346 l 1
 98 330 l 1
 98 330 102.897460938 312.174804688 106.580078125 282.256835938 c 1
 113 286 l 17
 113 286 167.380177343 349 204 349 c 0
112.03515625 90.3525390625 m 1
 124.416992188 56.6240234375 144.586914062 35 168 35 c 0
 231 35 247 103 247 172 c 0
 247 239 243 302 188 302 c 0
 153.91796875 302 128.235351562 267.381835938 113.42578125 233.891601562 c 1
 112.94140625 188.452148438 112.19140625 129.21484375 112.03515625 90.3525390625 c 1
EndSplineSet
Validated: 524289
EndChar

StartChar: d
Encoding: 100 100 10
Width: 355
VWidth: 0
Flags: W
HStem: -8 52<111.428 201.143 273.801 320.631> 302 47<105.73 234.266>
VStem: 30 52<76.6428 249.856> 233.631 52.3691<78.0404 293.46> 240.024 55.2871<236.386 291.682 339.088 597.958>
LayerCount: 2
Fore
SplineSet
151 302 m 0xf0
 95.2734375 302 82 246 82 172 c 0
 82 96 112 44 151 44 c 0
 189.288085938 44 218.756835938 76.873046875 233.630859375 118.151367188 c 1
 234.525390625 161.579101562 236.254882812 218.051757812 238.047851562 275.534179688 c 1
 226.951171875 293.223632812 200.506835938 302 151 302 c 0xf0
240.024414062 339.087890625 m 1xe8
 241.119140625 374.759765625 242.342773438 450.553710938 242.342773438 459 c 0
 242.342773438 540 228.342773438 598 228.342773438 598 c 1
 268.311523438 622 l 1
 281.311523438 606 l 1
 281.311523438 606 295.311523438 542 295.311523438 453 c 0xe8
 295.311523438 333.327148438 286 171.41796875 286 75 c 0xf0
 286 62.9697265625 287.1640625 46 293 46 c 0
 302 46 308 48 312 55 c 1
 340 24 l 1
 325 10 311 -9 285 -9 c 0
 262.6015625 -9 247.203125 17.2001953125 237.290039062 42.962890625 c 1
 208.486328125 11.498046875 169.2421875 -8 133 -8 c 0
 60.97265625 -8 30 72 30 141 c 0
 30 227.323242188 75 349 167 349 c 0
 196.81640625 349 222.609375 345.6796875 240.024414062 339.087890625 c 1xe8
EndSplineSet
Validated: 524289
EndChar

StartChar: u
Encoding: 117 117 11
Width: 349
VWidth: 0
Flags: W
HStem: -7 57<91.5 148.398 284.22 327.487> 325 20G<54.1739 108>
VStem: 55 55<50.1612 321.861> 225 53<65.6921 156 179.929 317>
LayerCount: 2
Fore
SplineSet
222 156 m 1
 201 111 166 -7 105 -7 c 0
 78 -7 55 27 55 54 c 0
 55 130 50 322 50 322 c 1
 82 345 l 1
 108 328 l 1
 108 328 110 158 110 78 c 0
 110 60 118 50 128 50 c 0
 143 50 197 147 225 241 c 1
 228 317 l 1
 254 343 l 1
 295 320 l 1
 295 320 278 217 278 150 c 0
 278 128.569335938 278.75 90.6435546875 284.840820312 64.4560546875 c 0
 290.166992188 53.921875 297.403320312 46 302 46 c 0
 311 46 317 48 321 55 c 1
 344 24 l 1
 329 10 315 -9 289 -9 c 0
 278.024414062 -9 267.047851562 -2.708984375 257.541015625 6.740234375 c 0
 249.204101562 13.6298828125 242.788085938 23.2470703125 237.860351562 34.763671875 c 0
 233.2890625 44.1640625 230.227539062 53.888671875 229.297851562 62.611328125 c 0
 223.229492188 90.70703125 222 124.14453125 222 156 c 1
EndSplineSet
Validated: 524289
EndChar

StartChar: q
Encoding: 113 113 12
Width: 328
VWidth: 0
Flags: W
HStem: -1 47<109.192 197.454> 313 41<124.117 207.018>
VStem: 30 62<62.4451 248.41> 215.851 63.1492<-203.013 70.9298> 227 62<74.0787 295.267>
LayerCount: 2
Fore
SplineSet
225 48 m 1xf0
 202 19 172 -1 135 -1 c 3
 70 -1 30 51 30 152 c 3
 30 261 109 354 189 354 c 3
 235 354 289 313 289 279 c 0xe8
 289 214 279 -47 279 -125 c 3
 279 -196 292.440356629 -196.298476465 292.440356629 -196.298476465 c 2
 248 -220 l 1
 222.025329334 -195.553251138 215.850803467 -189.741932675 215.850803467 -155.927050885 c 0
 215.850803467 -119.565478583 223.667759282 -27.9377209203 225 48 c 1xf0
227 258 m 1
 215 292 194 313 171 313 c 3
 108 313 92 245 92 176 c 3
 92 109 96 46 151 46 c 3
 185 46 210 68 225 101 c 1
 226 164 227 222 227 258 c 1
EndSplineSet
Validated: 524289
EndChar

StartChar: f
Encoding: 102 102 13
Width: 254
VWidth: 0
Flags: W
HStem: 285 40<53 95> 298 39<149 227> 566 38<164.08 225.968>
VStem: 95 54<-184 285 337 555.574>
LayerCount: 2
Fore
SplineSet
127 -216 m 1x70
 95 -188 l 1
 95 285 l 1
 53 285 l 1xb0
 25 298 l 25x70
 39 325 l 1xb0
 95 329 l 1
 95 329 95 431 95 467 c 3
 95 540 114 604 187 604 c 3
 226 604 279 568 279 568 c 1
 241 524 l 1
 241 524 225 566 191 566 c 3
 167.083007812 566 149 538 149 467 c 3
 149 428 149 376 149 337 c 25
 235 339 l 1
 255 323 l 25
 227 298 l 1
 149 298 l 1
 149 -184 l 1
 127 -216 l 1x70
EndSplineSet
Validated: 524289
EndChar

StartChar: h
Encoding: 104 104 14
Width: 346
VWidth: 0
Flags: W
HStem: -9 55<256 306.273> 282 58<191.827 248.5> 598 20G<58.6667 104>
VStem: 67 51<177 386.824> 211 60<46.283 263.71> 228 57<86.4513 281.772>
LayerCount: 2
Fore
SplineSet
118 177 m 1xf4
 139 222 174 340 235 340 c 3
 262 340 285 306 285 279 c 3xf4
 285 206 271 161 271 99 c 3
 271 79 271 46 279 46 c 3
 288 46 294 48 298 55 c 1
 326 24 l 17
 311 10 297 -9 271 -9 c 3
 241 -9 211 38 211 68 c 3xf8
 211 132 228 208 228 254 c 3
 228 272 220 282 210 282 c 3
 195 282 138 176 110 82 c 1
 107 16 l 1
 81 -10 l 1
 50 13 l 17
 50 13 67 116 67 183 c 3
 67 264 53 594 53 594 c 1
 87 618 l 1
 104 602 l 1
 104 602 118 266 118 177 c 1xf4
EndSplineSet
Validated: 1
EndChar

StartChar: v
Encoding: 118 118 15
Width: 294
VWidth: 0
Flags: W
HStem: 330 20G<26.5714 79.9048 220.5 238>
VStem: 214 55<194.589 330.59>
LayerCount: 2
Fore
SplineSet
125 -20 m 25
 95 4 l 1
 86.306640625 92.37890625 39.58984375 283.104492188 25 329 c 1
 58 350 l 1
 81 329 l 1
 92.3388671875 292.77734375 128.07421875 128.928710938 140 64 c 1
 173.092773438 128.861328125 214 186.71484375 214 281 c 3
 214 297 203 314 203 314 c 1
 238 354 l 1
 238 354 269 334 269 314 c 3
 269 201.875 202.004882812 89.8037109375 164 2 c 1
 125 -20 l 25
EndSplineSet
Validated: 524289
EndChar

StartChar: m
Encoding: 109 109 16
Width: 486
VWidth: 0
Flags: W
HStem: -9 55<401 451.273> 282 58<181.827 242.5 336.827 393.5> 326 20G<48.6667 94>
VStem: 57 51<177 321.958> 195 57<16 135.363> 218 45<177 279.377> 356 60<46.283 263.71> 373 57<86.4513 281.772>
LayerCount: 2
Fore
SplineSet
225 340 m 3xd4
 260 340 263 224 263 177 c 1
 284 222 319 340 380 340 c 3
 407 340 430 306 430 279 c 3xd5
 430 206 416 161 416 99 c 3
 416 79 416 46 424 46 c 3
 433 46 439 48 443 55 c 1
 471 24 l 17
 456 10 442 -9 416 -9 c 3
 386 -9 356 38 356 68 c 3xd2
 356 132 373 208 373 254 c 3
 373 272 365 282 355 282 c 3
 340 282 283 176 255 82 c 1
 252 16 l 1
 226 -10 l 1
 195 13 l 17xd9
 197 22 218 201 218 254 c 3
 218 272 210 282 200 282 c 3xd4
 185 282 128 176 100 82 c 5
 97 16 l 5
 71 -10 l 5
 40 13 l 21
 40 13 57 116 57 183 c 7
 57 264 43 322 43 322 c 5
 77 346 l 5xb4
 94 330 l 5
 94 330 108 266 108 177 c 5
 129 222 164 340 225 340 c 3xd4
EndSplineSet
Validated: 1
EndChar

StartChar: r
Encoding: 114 114 17
Width: 365
VWidth: 0
Flags: W
HStem: -10 66<248.259 331.156> 322 42<184.066 236.448> 335 20G<41.6667 87>
VStem: 52 43<16 137.639 196 330.951> 246 56<213.203 315.403>
LayerCount: 2
Fore
SplineSet
246 270 m 0xd8
 246 287.9140625 232.415039062 322 207 322 c 0
 192.618164062 322 157 266 133.8359375 204.555664062 c 1
 133.8359375 204.555664062 145 182 163 182 c 0
 206 182 246 224.479492188 246 270 c 0xd8
115.534179688 138.543945312 m 1
 107.474609375 119.232421875 100.380859375 100.008789062 95 82 c 1
 92 16 l 1
 66 -10 l 1
 35 13 l 1
 35 13 52 116 52 183 c 0
 52 264 36 331 36 331 c 1
 70 355 l 1xb8
 87 339 l 1
 87 339 97 285 97 196 c 1
 118.057617188 241.354492188 160.73046875 364 222 364 c 0
 249 364 302 320 302 279 c 0
 302 173.727539062 203 159 155 153 c 1
 207 115 257.983398438 56 288 56 c 0
 307 56 319 60 331 77 c 1
 354 54 l 1
 343 27 325 -10 297 -10 c 0
 240.248046875 -10 178.869140625 98.2548828125 115.534179688 138.543945312 c 1
EndSplineSet
Validated: 524289
EndChar

StartChar: scriptr
Encoding: 65536 -1 18
Width: 323
VWidth: 0
Flags: W
HStem: 0 38<223.388 285.135> 161 39<90.8159 100> 311 36<94.9881 131.873>
VStem: 43 42<202.632 307.34> 134.266 29.7344<211.509 309.972> 163 59<38.503 147.031>
LayerCount: 2
Fore
SplineSet
116 200 m 1xf8
 123 223 129 236 133 260 c 0
 133.76171875 264.318359375 134.265625 269.733398438 134.265625 275.41015625 c 0
 134.265625 292.079101562 129.919921875 311 115 311 c 3
 97 311 85 277 85 253 c 3
 85 210 101 200 116 200 c 1xf8
37 6 m 1
 25 22 l 17
 39 43 84 121 100 161 c 17
 72 161 43 203 43 239 c 3
 43 292 72 347 125 347 c 27
 154 347 164 314 164 285 c 3xf8
 164 253 159 231 151 211 c 9
 180 221 187 232 218 232 c 3
 237 232 254 219 254 200 c 3
 254 143 222 123 222 66 c 27
 222 54 226 38 238 38 c 3
 262 38 278 49 294 65 c 9
 313 45 l 17
 295 24 273 0 239 0 c 3
 198 0 163 40 163 81 c 27xf4
 163 128 211 194 211 194 c 1
 181 178 126 158 126 158 c 1
 107 110 48 21 37 6 c 1
EndSplineSet
Validated: 524289
EndChar

StartChar: y
Encoding: 121 121 19
Width: 306
VWidth: 0
Flags: W
HStem: 330 20G<33.5714 86.9048 227.5 245>
VStem: 221 55<186.825 330.59>
LayerCount: 2
Fore
SplineSet
109 -8 m 5
 100 80 47 283 32 329 c 1
 65 350 l 1
 88 329 l 1
 99 293 142 117 154 52 c 5
 187 117 221 187 221 281 c 3
 221 297 210 314 210 314 c 1
 245 354 l 1
 245 354 276 334 276 314 c 3
 276 202 226 112 171 2 c 8
 124 -79 78 -163 51 -207 c 1
 38 -213 l 1
 30 -193 l 5
 109 -8 l 5
EndSplineSet
Validated: 1
EndChar

StartChar: c
Encoding: 99 99 20
Width: 276
VWidth: 0
Flags: W
HStem: -14 58<116.356 192.464> 294 54<115.114 205.551>
VStem: 25 57.6133<81.8528 231.679>
LayerCount: 2
Fore
SplineSet
157 294 m 7
 107.127929688 294 82.61328125 244.387695312 82.61328125 178.971679688 c 3
 82.61328125 111.908203125 108.377929688 44 159 44 c 3
 203 44 230 88 230 88 c 1
 246 74 l 1
 246 74 200 -14 141 -14 c 3
 75 -14 25 70 25 146 c 3
 25 223 100 348 165 348 c 3
 199 348 257 312 257 312 c 1
 219 253 l 5
 215 262 197 294 157 294 c 7
EndSplineSet
Validated: 524289
EndChar

StartChar: j
Encoding: 106 106 21
Width: 159
VWidth: 0
Flags: W
HStem: 326 20G<53.6667 108> 403 68<50.3894 114.335>
VStem: 45 74<406.766 465.238> 56 54<-87.4014 312.343>
LayerCount: 2
Fore
SplineSet
110 77 m 3xd0
 110 -33 75 -139 59 -197 c 1
 48 -207 l 1
 35 -190 l 1
 41 -134 56 -24 56 77 c 3
 56 163 48 322 48 322 c 1
 82 346 l 1
 108 329 l 1
 108 329 110 156 110 77 c 3xd0
78 471 m 3
 97 471 119 453 119 434 c 3
 119 417 100 403 83 403 c 3
 66 403 45 417 45 434 c 3xe0
 45 448 64 471 78 471 c 3
EndSplineSet
Validated: 1
EndChar

StartChar: t
Encoding: 116 116 22
Width: 230
VWidth: 0
Flags: W
HStem: -12 55<119 169.273> 296 44<43 83 141 192>
VStem: 74 60<43.283 293.505> 83 57<340 392>
LayerCount: 2
Fore
SplineSet
82 296 m 1xd0
 43 296 l 1
 43 296 20 307 15 309 c 1
 29 336 l 1
 83 340 l 1
 83 392 l 1
 140 481 l 2
 140 477 139 472 139 467 c 0
 139 428 140 379 140 340 c 1xd0
 200 342 l 1
 220 326 l 1
 192 301 l 1
 141 296 l 1
 141 296 134 137 134 96 c 3
 134 76 134 43 142 43 c 3
 151 43 157 45 161 52 c 1
 189 21 l 1
 174 7 160 -12 134 -12 c 3
 104 -12 74 35 74 65 c 3xe0
 74 100 82 296 83 296 c 1
 82 296 l 1xd0
EndSplineSet
Validated: 1
EndChar

StartChar: w
Encoding: 119 119 23
Width: 439
VWidth: 0
Flags: W
HStem: 330 20G<26.5714 79.9048 181.392 235.677 355.5 373>
VStem: 349.004 54.9958<139.967 330.59>
LayerCount: 2
Fore
SplineSet
119 -10 m 1
 89 14 l 1
 80.306640625 102.37890625 39.58984375 283.104492188 25 329 c 1
 58 350 l 1
 81 329 l 1
 92.3388671875 292.77734375 124.07421875 139.928710938 136 75 c 1
 168.928710938 139.540039062 194.772460938 282.010742188 194.772460938 282.010742188 c 1
 191.319335938 294.543945312 185.783203125 318.244140625 181.926757812 325.315429688 c 0
 180.658203125 327.641601562 179.772460938 329.010742188 179.772460938 329.010742188 c 2
 213.772460938 350.010742188 l 1
 236.772460938 329.010742188 l 1
 248.111328125 292.788085938 305.07421875 136.928710938 317 72 c 1
 348.042624594 132.843067851 349.004194059 180.480237993 349.004194059 263.974115666 c 0
 349.004194059 286.613858531 349.004194059 296.992717887 338 314 c 1
 373 354 l 1
 373 354 404 334 404 314 c 0
 404 201.875 377.004882812 99.8037109375 339 12 c 1
 300 -10 l 1
 270 14 l 1
 265.357421875 61.1943359375 239.645507812 134.732421875 224 200 c 1
 203.065429688 131.549804688 181.458007812 66.1953125 158 12 c 1
 119 -10 l 1
EndSplineSet
Validated: 524289
EndChar

StartChar: k
Encoding: 107 107 24
Width: 312
VWidth: 0
Flags: W
HStem: -14 21G<233 293.455>
VStem: 57 44.7793<125.737 147.701 182.729 534.131> 210 60<250.299 335.947> 228 69<10 59.1975>
LayerCount: 2
Fore
SplineSet
103.022460938 182.728515625 m 1xd0
 148.836914062 204.68359375 210 237.8984375 210 289 c 0
 210 305 199 322 199 322 c 1
 234 362 l 1
 248 353 270 331 270 301 c 0xe0
 270 266 238 232 189 197 c 1
 231 136 284 59 297 8 c 1
 258 -14 l 1
 228 10 l 1
 223 57 177 120 143 169 c 1
 145.139648438 172.208984375 l 1
 101.779296875 147.701171875 l 1
 97 13 l 1
 71 -13 l 1
 40 10 l 1
 40 10 57 262 57 329 c 0
 57 410 43 583 43 583 c 1
 77 607 l 1
 94 591 l 1
 94 591 108 412 108 323 c 2
 103.022460938 182.728515625 l 1xd0
EndSplineSet
Validated: 524289
EndChar

StartChar: g
Encoding: 103 103 25
Width: 298
VWidth: 0
Flags: W
HStem: -210 68<57.5826 189.988> -10 61<91.4793 243.838> 98.6797 35.3604<104.361 180.921> 309.479 31.96<101.959 176.767>
VStem: 0 46<-129.051 -24.878> 34 49.6006<150.348 276.906> 198.8 53.6006<164.16 293.502> 256 27.7021<-92.1211 -0.617188>
LayerCount: 2
Fore
SplineSet
138.799804688 309.479492188 m 0xf7
 94.21875 309.479492188 83.6005859375 270.719726562 83.6005859375 220.399414062 c 0
 83.6005859375 168.719726562 107.600585938 134.040039062 138.799804688 134.040039062 c 0
 189.200195312 134.040039062 198.799804688 174.159179688 198.799804688 221.079101562 c 0
 198.799804688 266.639648438 182.799804688 309.479492188 138.799804688 309.479492188 c 0xf7
34 200 m 0
 34 258.69921875 78 341.439453125 151.600585938 341.439453125 c 0
 175.911132812 341.439453125 202 338 208 329 c 1
 266 395 l 1
 288 375 l 1
 232 309 l 1
 242.08203125 293.1796875 252.400390625 261.544921875 252.400390625 237.399414062 c 0
 252.400390625 163.279296875 188.400390625 98.6796875 124.400390625 98.6796875 c 0
 108.219726562 98.6796875 93.998046875 102.969726562 81.9111328125 110.178710938 c 1
 81.896484375 109.530273438 81.888671875 108.876953125 81.888671875 108.21875 c 0
 81.888671875 97.6181640625 83.8505859375 85.8505859375 90 75 c 0
 102.47265625 52.990234375 127 51 163 51 c 0
 239.439453125 51 283.702148438 19.796875 283.702148438 -21.03125 c 0
 283.702148438 -176 165.955078125 -210 94 -210 c 0
 39 -210 0 -161 0 -106 c 0xfb
 0 -49 28 -8 59 24 c 1
 59 24 26 49.494140625 26 66 c 1
 60.7294921875 127.975585938 l 1
 43.310546875 147.86328125 34 174.993164062 34 200 c 0
76 9 m 1
 56 -22 46 -56.298828125 46 -92 c 0
 46 -125 81 -142 114 -142 c 0
 158.989257812 -142 256 -130 256 -50.544921875 c 0
 256 -27.9150390625 212.58203125 -10 134 -10 c 0
 117.875976562 -10 92.166015625 -1.0419921875 76 9 c 1
EndSplineSet
Validated: 524289
EndChar

StartChar: z
Encoding: 122 122 26
Width: 344
VWidth: 0
Flags: W
HStem: -12 53<180.17 313.312> 14 44<119.727 224.335> 296 50<120.882 199.247> 308 49<69.7971 194.938>
VStem: 31 313
LayerCount: 2
Fore
SplineSet
119 55 m 1x28
 134 56 142 58 158 58 c 0x68
 194 58 221 41 262 41 c 0
 308 41 299 41 326 67 c 1
 344 49 l 1
 314 9 304 -12 255 -12 c 0x88
 206 -12 200 14 148 14 c 0
 129 14 103 6 100 4 c 2
 70 -20 l 1
 31 2 l 1
 44 53 111 156 153 217 c 0
 176 251 191 272 200 296 c 1
 196 296 192 296 188 296 c 0x68
 146 296 160 308 119 308 c 0
 97 308 87 306 49 286 c 1
 30 304 l 1
 65 332 93 357 115 357 c 0x18
 153 357 150 346 192 346 c 0
 216 346 221 352 248 360 c 1
 279 333 l 1
 251 286 229 230 185 169 c 0
 161 135 139 95 119 55 c 1x28
EndSplineSet
Validated: 1
EndChar

StartChar: x
Encoding: 120 120 27
Width: 293
VWidth: 0
Flags: W
HStem: 334 20G<30.5455 91 216.5 241>
VStem: 15 58<-0.131947 109.68> 27 69<275.75 330> 210 60<4 53.2261 255.197 327.947>
LayerCount: 2
Fore
SplineSet
210 281 m 7xb0
 210 297 199 314 199 314 c 5
 234 354 l 5
 248 345 270 323 270 293 c 7
 270 258 214 232 165 197 c 1
 207 136 260 53 273 2 c 1
 234 -20 l 1
 204 4 l 1
 199 51 153 120 119 169 c 1
 84 141 73 91 73 48 c 3
 73 32 84 15 84 15 c 1
 49 -25 l 1
 36 -17 15 4 15 33 c 3xd0
 15 89 53 149 106 188 c 1
 64 247 40 281 27 332 c 5
 66 354 l 5
 96 330 l 5
 100 287 118 266 151 217 c 1
 179 242 210 258 210 281 c 7xb0
EndSplineSet
Validated: 1
EndChar

StartChar: S
Encoding: 83 83 28
Width: 319
VWidth: 0
Flags: W
HStem: -17 58<104.896 216.689> 456 28<114.17 207.279>
VStem: 33 52<352.835 429.217> 251 48<68.8356 148.088>
LayerCount: 2
Fore
SplineSet
10 114 m 1
 33 135 l 1
 33 135 97 41 165 41 c 3
 207 41 251 71 251 95 c 3
 251 199 33 250 33 374 c 3
 33 439 114 484 163 484 c 3
 230 484 279 439 279 439 c 1
 265 394 l 1
 237 399 l 1
 237 399 221 456 169 456 c 3
 120 456 85 429 85 403 c 3
 85 316 299 230 299 134 c 3
 299 81 232 -17 154 -17 c 3
 85 -17 10 114 10 114 c 1
EndSplineSet
Validated: 1
EndChar

StartChar: I
Encoding: 73 73 29
Width: 180
VWidth: 0
Flags: W
HStem: -15 21G<70 122.833> 464 20G<57.1667 110>
VStem: 56 60<9.04235 294.125> 64 60<174.875 459.958>
LayerCount: 2
Fore
SplineSet
124 315 m 0xd0
 116 148 l 0
 116 67 130 9 130 9 c 1
 87 -15 l 1
 70 1 l 1
 70 1 56 65 56 154 c 0xe0
 64 321 l 0
 64 402 50 460 50 460 c 1
 93 484 l 1
 110 468 l 1
 110 468 124 404 124 315 c 0xd0
EndSplineSet
Validated: 1
EndChar

StartChar: D
Encoding: 68 68 30
Width: 427
VWidth: 0
Flags: HMW
LayerCount: 2
Back
SplineSet
217 428 m 3
 142 428 111 331 111 231 c 3
 111 98 163 45 215 45 c 3
 300 45 328 140 328 233 c 3
 328 360 301 428 217 428 c 3
52 191 m 3
 52 308 115 472 239 472 c 3
 299.208007812 472 399 402 399 265 c 3
 399 118 301 -11 193 -11 c 3
 113 -11 52 98 52 191 c 3
EndSplineSet
Fore
SplineSet
143 322 m 6
 135 148 l 2
 135 89.8125 137.224609375 48.494140625 141.293945312 27.01953125 c 1
 241.948242188 27.2548828125 331 71.4609375 331 223 c 0
 331 380 298 442 175 442 c 4
 164.306640625 442 133.091796875 436.481445312 133.091796875 436.481445312 c 5
 133.091796875 436.481445312 143 379.165039062 143 322 c 6
74.95703125 424.591796875 m 5
 72.6376953125 423.989257812 l 6
 54.607421875 417.616210938 43 412 43 412 c 5
 21 436 l 5
 21 436 112.78515625 479.681640625 228.502929688 479.681640625 c 4
 293.586914062 479.681640625 397 417.358398438 397 259 c 0
 397 115 323 -12 147 -12 c 0
 64 -12 21 12 21 12 c 1
 21 28 l 1
 43 44 l 1
 45.4990234375 39.001953125 57.0869140625 35.8642578125 77.15625 33.6630859375 c 1
 75.1103515625 60.58203125 75 100.228515625 75 154 c 2
 83 328 l 6
 83 372.537109375 78.767578125 404.678710938 74.95703125 424.591796875 c 5
EndSplineSet
Validated: 524289
EndChar

StartChar: O
Encoding: 79 79 31
Width: 407
VWidth: 0
Flags: W
HStem: -11 56<140.662 243.951> 435 44<147.901 260.536>
VStem: 30 59<110.834 316.98> 306 71<153.462 371.841>
LayerCount: 2
Fore
SplineSet
195 435 m 7
 120 435 89 331 89 231 c 3
 89 98 141 45 193 45 c 3
 278 45 306 147 306 240 c 7
 306 367 279 435 195 435 c 7
30 191 m 3
 30 308 93 479 217 479 c 7
 277.208007812 479 377 409 377 272 c 7
 377 125 279 -11 171 -11 c 3
 91 -11 30 98 30 191 c 3
EndSplineSet
Validated: 524289
EndChar

StartChar: A
Encoding: 65 65 32
Width: 357
VWidth: 0
Flags: W
HStem: 155 43<107.106 237.263>
VStem: 18 55<3.41038 132.399>
LayerCount: 2
Fore
SplineSet
209 480 m 1
 239 456 l 1
 248 368 324 49 339 3 c 1
 306 -18 l 1
 283 3 l 1
 278 18 264 78 248 147 c 1
 215 152 175 155 139 155 c 0
 122 155 106 155 92 153 c 1
 81 116 73 80 73 53 c 0
 73 37 84 20 84 20 c 1
 49 -20 l 1
 49 -20 18 0 18 20 c 0
 18 132 132 370 170 458 c 1
 209 480 l 1
239 187 m 1
 220 273 200 363 194 396 c 1
 174 357 135 277 107 198 c 1
 112 198 116 198 122 198 c 0
 162 198 202 194 239 187 c 1
EndSplineSet
Validated: 1
EndChar

StartChar: V
Encoding: 86 86 33
Width: 369
VWidth: 0
Flags: W
VStem: 291 55<328.899 456.59>
LayerCount: 2
Fore
SplineSet
155 -20 m 29
 125 4 l 5
 116.306640625 92.37890625 39.58984375 411.104492188 25 457 c 5
 58 478 l 5
 81 457 l 5
 92.3388671875 420.77734375 158.07421875 128.928710938 170 64 c 5
 203.092773438 128.861328125 291 312.71484375 291 407 c 7
 291 423 280 440 280 440 c 5
 315 480 l 5
 315 480 346 460 346 440 c 7
 346 327.875 232.004882812 89.8037109375 194 2 c 5
 155 -20 l 29
EndSplineSet
Validated: 524289
EndChar

StartChar: N
Encoding: 78 78 34
Width: 419
VWidth: 0
Flags: W
VStem: 57 51<1.76379 340.012> 328 51<56.3356 430.623>
LayerCount: 2
Back
SplineSet
191 475 m 5
 211 459 l 5
 183 434 l 5
 138 440 l 5
 138 260 l 5
 171 250 242 241 301 241 c 7
 340 241 375 245 390 254 c 5
 390 427 l 5
 351 427 l 5
 323 440 l 5
 337 467 l 5
 403 471 516 475 516 475 c 5
 536 459 l 5
 508 434 l 5
 447 440 l 5
 447 39 l 5
 486 39 l 5
 514 26 l 5
 500 -1 l 5
 434 -5 330 -6 330 -6 c 5
 310 10 l 5
 338 35 l 5
 390 26 l 5
 390 206 l 5
 370 200 345 198 318 198 c 7
 258 198 187 209 138 222 c 5
 138 39 l 5
 177 39 l 5
 205 26 l 5
 191 -1 l 5
 125 -5 9 -6 9 -6 c 5
 -11 10 l 5
 17 35 l 5
 81 26 l 5
 81 427 l 5
 42 427 l 5
 14 440 l 5
 28 467 l 5
 94 471 191 475 191 475 c 5
EndSplineSet
Fore
SplineSet
377 -2 m 27
 377 -19 338 -24 338 -24 c 1
 308 0 l 1
 303 47 204 195 170 244 c 0
 150.766601562 271.017578125 125.662109375 306.21484375 102.84765625 341.331054688 c 1
 105.634765625 296.99609375 108 262 108 212 c 27
 108 130 97 3 97 3 c 1
 71 -23 l 1
 40 0 l 1
 40 0 57 151 57 218 c 3
 57 313.669921875 46.5654296875 456.71484375 44 462 c 1
 66 494 l 1
 84.0048828125 481.3203125 99.6103515625 466.264648438 114 450 c 1
 118 407 196 302 229 253 c 0
 251.203125 220.752929688 293.875 163.619140625 321.291015625 108.994140625 c 1
 324.8671875 147.390625 328 189.237304688 328 218 c 3
 328 299 314 470 314 470 c 1
 348 494 l 1
 365 478 l 1
 365 478 379 301 379 212 c 3
 379 142.170898438 377 81 377 -2 c 27
EndSplineSet
Validated: 524289
EndChar

StartChar: Z
Encoding: 90 90 35
Width: 401
VWidth: 0
Flags: W
HStem: -15 21G<19.1667 61.5> -9 53<189.958 352.077> 17 44<116.006 248.05> 414.75 50.25<156.846 271.783> 427 49<95.0248 252.367>
LayerCount: 2
Back
SplineSet
293.5 467 m 5
 284 387.71875 124 89 115 38 c 1
 141.87109375 27.36328125 175.688476562 17.5107421875 206.224609375 17.5107421875 c 3
 242.234375 17.5107421875 262.172851562 39.5 275 54 c 1
 327 43 l 1
 327 5.8701171875 293.03515625 -26.162109375 242.3671875 -26.162109375 c 3
 171.861328125 -26.162109375 95.892578125 7.85546875 46 36 c 1
 58 108 214 390 224.5 465 c 5
 211.638671875 466.587890625 201.326171875 467.663085938 192.418945312 467.663085938 c 7
 148 467.663085938 119.3125 439 119.3125 408.891601562 c 5
 66.240234375 406 l 5
 65.3076171875 410.139648438 64.662109375 415.423828125 64.662109375 421.331054688 c 7
 64.662109375 474.259765625 116.006835938 498.71875 167.297851562 498.71875 c 7
 217.2578125 498.71875 260.958984375 485.356445312 293.5 467 c 5
EndSplineSet
Fore
SplineSet
115 58 m 1x10
 130 59 149 61 165 61 c 3x30
 201 61 248 44 289 44 c 3
 335 44 346 44 373 70 c 1
 391 52 l 1
 359 12 331 -9 282 -9 c 3x40
 233 -9 207 17 155 17 c 3
 120 17 83 -1 40 -15 c 1
 15 9 l 1
 122 153 192 286 272 416 c 1
 265.5 415 259 414.75 252.625 414.75 c 3xb0
 210.880859375 414.75 198.424804688 427 157 427 c 3
 135 427 102 425 64 405 c 1
 45 423 l 1
 82 449 131 476 153 476 c 3x08
 191 476 214 465 256 465 c 3
 280 465 285 471 312 479 c 1
 343 452 l 1
 115 58 l 1x10
EndSplineSet
Validated: 524289
EndChar

StartChar: H
Encoding: 72 72 36
Width: 420
VWidth: 0
Flags: W
HStem: -15 21G<60 112.667 320 372.667> 182 53<184.853 307.842> 208 44<112.401 222.904> 464 20G<47 100 307 360>
VStem: 46 60<9.04235 205.472> 54 60<247 459.958> 307 59<9.04235 195 239 294.125> 310 64<239 459.958>
LayerCount: 2
Fore
SplineSet
374 315 m 1xd5
 366 148 l 2
 366 67 380 9 380 9 c 1
 336 -15 l 1
 320 1 l 1
 320 1 306 65 306 154 c 1
 307 195 l 1
 291 187 274 182 252 182 c 0xd2
 203 182 206 208 154 208 c 0
 136 208 123 205 108 200 c 1
 106 148 l 2
 106 67 120 9 120 9 c 1
 76 -15 l 1
 60 1 l 1
 60 1 46 65 46 154 c 1xba
 54 321 l 2
 54 402 40 460 40 460 c 1
 82 484 l 1
 100 468 l 1
 100 468 114 404 114 315 c 1
 110 247 l 1
 114 249 l 1
 129 250 148 252 164 252 c 0xb4
 200 252 217 235 258 235 c 0
 282 235 298 239 310 239 c 1
 314 321 l 2
 314 402 300 460 300 460 c 1
 342 484 l 1
 360 468 l 1
 360 468 374 404 374 315 c 1xd5
EndSplineSet
Validated: 1
EndChar

StartChar: U
Encoding: 85 85 37
Width: 409
VWidth: 0
Flags: W
HStem: -17 56<147.908 256.135>
VStem: 45 53<99.4004 458> 304 51<263.104 468> 318 51<108.839 424.437>
LayerCount: 2
Fore
SplineSet
369 200 m 3xd0
 369 80 272 -17 180 -17 c 3
 100 -17 45 107 45 200 c 3
 45 291 42 453 40 458 c 1
 56 492 l 1
 99 465 l 1
 99 465 98 285 98 200 c 3
 98 89 154 39 202 39 c 3
 280 39 318 127 318 216 c 3xd0
 318 301 304 466 304 468 c 1
 338 492 l 1
 355 476 l 2xe0
 355 475 369 287 369 200 c 3xd0
EndSplineSet
Validated: 1
EndChar

StartChar: J
Encoding: 74 74 38
Width: 167
VWidth: 0
Flags: W
VStem: 67 60<96.3558 479.896>
LayerCount: 2
Fore
SplineSet
21 -199 m 1
 8 -205 l 1
 -10 -185 l 1
 50 -45 57 108 67 321 c 1
 67 402 53 474 53 474 c 1
 96 498 l 1
 118 477 127 426 127 315 c 1
 115 71 101 -68 21 -199 c 1
EndSplineSet
Validated: 1
EndChar

StartChar: L
Encoding: 76 76 39
Width: 373
VWidth: 0
Flags: W
HStem: -18 53<209.612 336.994> -15 21G<60 78.0273> 8 44<115.197 251.194> 464 20G<47.1667 100>
VStem: 46 60<32.8211 294.125> 54 60<174.875 459.958>
LayerCount: 2
Fore
SplineSet
114 315 m 1x74
 106 148 l 2
 106 97.4130859375 111.459960938 55.7978515625 115.560546875 31.677734375 c 1
 137.090820312 42.5556640625 162.70703125 52 188 52 c 0x78
 224 52 247 35 288 35 c 0
 334 35 323 35 350 61 c 1
 368 43 l 1
 336 3 330 -18 281 -18 c 0x98
 232 -18 230 8 178 8 c 0
 143 8 131 -10 88 -24 c 1
 78.02734375 -14.4267578125 l 1
 77 -15 l 1
 60 1 l 1
 60 1 46 65 46 154 c 1x78
 54 321 l 2
 54 402 40 460 40 460 c 1
 83 484 l 1
 100 468 l 1
 100 468 114 404 114 315 c 1x74
EndSplineSet
Validated: 524289
EndChar

StartChar: T
Encoding: 84 84 40
Width: 342
VWidth: 0
Flags: W
HStem: -15 21G<156 209> 426 50<204.319 313.258> 438 49<50.4419 141.671>
VStem: 142 60<9.04235 429> 150 60<174.875 427.725>
LayerCount: 2
Fore
SplineSet
210 315 m 2xc8
 202 148 l 2
 202 67 216 9 216 9 c 1
 174 -15 l 1
 156 1 l 1
 156 1 142 65 142 154 c 1xd0
 150 321 l 2
 150 371 145 412 141 436 c 5
 131 437 121 438 112 438 c 4
 90 438 56 436 18 416 c 5
 0 434 l 5
 37 460 86 487 108 487 c 4xa8
 156 487 212 476 256 476 c 4
 280 476 285 482 312 490 c 5
 342 463 l 5
 316 450 289 426 252 426 c 4
 237 426 220 427 203 429 c 5
 207 402 210 362 210 315 c 2xc8
EndSplineSet
Validated: 1
EndChar

StartChar: X
Encoding: 88 88 41
Width: 372
VWidth: 0
Flags: W
HStem: -15 21G<288 348.455>
VStem: 20 69<403.023 450> 23 58<-0.131947 106.746> 283 69<9 54.5289> 290 60<372.632 449.947>
LayerCount: 2
Back
SplineSet
216 476 m 25
 246 452 l 1
 254.693359375 363.62109375 331.41015625 44.8955078125 346 -1 c 1
 313 -22 l 1
 290 -1 l 1
 278.661132812 35.22265625 212.92578125 327.071289062 201 392 c 1
 167.907226562 327.138671875 80 143.28515625 80 49 c 3
 80 33 91 16 91 16 c 1
 56 -24 l 1
 56 -24 25 -4 25 16 c 3
 25 128.125 138.995117188 366.196289062 177 454 c 1
 216 476 l 25
EndSplineSet
Fore
SplineSet
290 403 m 3xc8
 290 419 279 436 279 436 c 1
 314 476 l 1
 328 467 350 445 350 415 c 3xc8
 350 380 253 288 204 253 c 1
 246 192 339 58 352 7 c 1
 313 -15 l 1
 283 9 l 1
 278 56 195 169 161 218 c 1
 126 190 81 91 81 48 c 3
 81 32 92 15 92 15 c 1
 57 -25 l 1
 44 -17 23 4 23 33 c 3xb0
 23 89 92 205 145 244 c 1
 103 303 33 401 20 452 c 1
 59 474 l 1
 89 450 l 1
 93 407 153 329 186 280 c 1
 214 305 290 380 290 403 c 3xc8
EndSplineSet
Validated: 1
EndChar

StartChar: W
Encoding: 87 87 42
Width: 523
VWidth: 0
Flags: W
VStem: 448 55<274.851 456.59>
LayerCount: 2
Fore
SplineSet
150 -20 m 1
 120 4 l 1
 111 92 35 411 20 457 c 1
 53 478 l 1
 76 457 l 1
 87 421 153 129 165 64 c 1
 198 129 239 313 239 407 c 1
 239 423 228 440 228 440 c 1
 263 480 l 1
 272 474 282 465 291 457 c 1
 302 421 368 129 380 64 c 1
 413 129 448 313 448 407 c 0
 448 423 437 440 437 440 c 1
 472 480 l 1
 472 480 503 460 503 440 c 0
 503 328 442 90 404 2 c 1
 365 -20 l 1
 335 4 l 1
 330 60 297 206 270 319 c 1
 234 204 216 65 189 2 c 1
 150 -20 l 1
EndSplineSet
Validated: 1
EndChar

StartChar: Y
Encoding: 89 89 43
Width: 351
VWidth: 0
Flags: W
VStem: 5 56<413.735 457> 271 55<261.022 456.59>
LayerCount: 2
Fore
SplineSet
207 28 m 0
 141 -60 64 -110 14 -127 c 1
 -5 -118 l 1
 -1 -95 l 1
 47 -85 104 -26 153 37 c 0
 189 84 203 123 203 123 c 1
 169 171 20 411 5 457 c 1
 38 478 l 1
 61 457 l 1
 72 421 195 225 229 187 c 1
 249 230 271 347 271 407 c 0
 271 423 260 440 260 440 c 1
 295 480 l 1
 295 480 326 460 326 440 c 0
 326 305 281 127 207 28 c 0
EndSplineSet
Validated: 1
EndChar

StartChar: M
Encoding: 77 77 44
Width: 533
VWidth: 0
Flags: W
VStem: 30 55<3.41038 185.149>
LayerCount: 2
Fore
SplineSet
383 480 m 5
 413 456 l 5
 422 368 498 49 513 3 c 5
 480 -18 l 5
 457 3 l 5
 446 39 380 331 368 396 c 5
 335 331 294 147 294 53 c 5
 294 37 305 20 305 20 c 5
 270 -20 l 5
 261 -14 251 -5 242 3 c 5
 231 39 165 331 153 396 c 5
 120 331 85 147 85 53 c 4
 85 37 96 20 96 20 c 5
 61 -20 l 5
 61 -20 30 0 30 20 c 4
 30 132 91 370 129 458 c 5
 168 480 l 5
 198 456 l 5
 203 400 236 254 263 141 c 5
 299 256 317 395 344 458 c 5
 383 480 l 5
EndSplineSet
Validated: 1
EndChar

StartChar: E
Encoding: 69 69 45
Width: 368
VWidth: 0
Flags: HMW
LayerCount: 2
Fore
SplineSet
100.828803152 421.891167808 m 1
 104.672010342 400.057584055 109 364.484489693 109 315 c 2
 105.62782261 244.605796994 l 1
 248 249 l 1
 265 230 l 1
 243 200 l 1
 103.830727086 207.091427919 l 1
 101 148 l 2
 101 97.4134570132 108.459960938 61.7978515625 112.560546875 37.677734375 c 1
 134.090820312 48.5556640625 157.70703125 49 183 49 c 0
 219 49 242 38 283 38 c 0
 329 38 321 38 345 61 c 1
 363 43 l 1
 331 3 325 -15 276 -15 c 0
 227 -15 225 5 173 5 c 0
 138 5 126 -10 83 -24 c 1
 72.2239495967 -16.4304694388 64.2337565786 -7.69059442693 55 1 c 1
 55 1 41 65 41 154 c 1
 49 321 l 2
 49 402 35 440 35 440 c 1
 78 464 l 1
 294 474 l 1
 313 455 l 1
 289 420 l 1
 100.828803152 421.891167808 l 1
EndSplineSet
Validated: 524289
EndChar

StartChar: C
Encoding: 67 67 46
Width: 322
VWidth: 0
Flags: W
HStem: -19 63<128.259 221.681> 434 44<141.599 227.302>
VStem: 20 57<107.725 316.591>
LayerCount: 2
Back
SplineSet
184 428 m 7
 109 428 78 331 78 231 c 7
 78 98 130 45 182 45 c 7
 267 45 295 140 295 233 c 7
 295 360 268 428 184 428 c 7
19 191 m 7
 19 308 82 472 206 472 c 7
 266.208007812 472 366 402 366 265 c 7
 366 118 268 -11 160 -11 c 7
 80 -11 19 98 19 191 c 7
EndSplineSet
Fore
SplineSet
194 434 m 7
 125 434 77 336 77 246 c 7
 77 113 113 44 185 44 c 7
 245 44 285 121 285 121 c 5
 307 102 l 5
 307 102 243 -19 162 -19 c 7
 107 -19 20 60.296875 20 200 c 7
 20 329 106 478 195 478 c 7
 278 478 300 429 300 429 c 5
 248 368 l 5
 242 380 230 434 194 434 c 7
EndSplineSet
Validated: 524289
EndChar

StartChar: G
Encoding: 71 71 47
Width: 327
VWidth: 0
Flags: W
HStem: -19 63<128.259 222.505> 434 44<141.599 227.969>
VStem: 20 57<107.725 316.591> 248 36<376.056 408.292>
LayerCount: 2
Fore
SplineSet
194 434 m 0
 125 434 77 336 77 246 c 0
 77 113 113 44 185 44 c 0
 218.928702012 44 246.462088356 68.621965321 263.983746376 90.0195184828 c 1
 252.12890625 177.2578125 l 1
 251 177 l 1
 202 170 l 1
 174 183 l 1
 198 227 l 1
 296 236 l 1
 307 102 l 1
 307 102 243 -19 162 -19 c 0
 107 -19 20 60.296875 20 200 c 0
 20 329 106 478 195 478 c 0
 246 478 280 429 280 429 c 1
 284 378 l 1
 248 368 l 1
 242 380 230 434 194 434 c 0
EndSplineSet
Validated: 524289
EndChar

StartChar: Q
Encoding: 81 81 48
Width: 395
VWidth: 0
Flags: W
HStem: -196.764 58.0061<331.983 402.713> -11 56<151.977 240.793> 444 44<147.062 259.697>
VStem: 29.1611 59<109.607 319.07> 305.161 71<160.55 380.841>
LayerCount: 2
Fore
SplineSet
194.161132812 444 m 0
 119.161132812 444 88.1611328125 331 88.1611328125 231 c 0
 88.1611328125 98 140.161132812 45 192.161132812 45 c 0
 277.161132812 45 305.161132812 156 305.161132812 249 c 0
 305.161132812 376 278.161132812 444 194.161132812 444 c 0
29.1611328125 191 m 0
 29.1611328125 308 92.1611328125 488 216.161132812 488 c 0
 276.369140625 488 376.161132812 418 376.161132812 281 c 0
 376.161132812 134 278.161132812 -11 170.161132812 -11 c 0
 163.979492188 -11 157.912109375 -10.349609375 151.977539062 -9.10546875 c 2
 155.161132812 -12 l 1
 149.459960938 -18.7197265625 l 1
 197.266601562 -22.849609375 247.876953125 -50.12109375 285.553710938 -89.439453125 c 1
 286.416015625 -88.3173828125 l 1
 313.455237961 -111.663270799 332.762452496 -138.757528617 354.222080834 -138.757528617 c 0
 367.425499512 -138.757528617 383.412189379 -127.951213604 388.809570312 -123.368164062 c 1
 433 -152.900390625 l 1
 420.539644549 -179.258045318 393.995708547 -196.763588422 372.92178633 -196.763588422 c 0
 339.749700091 -196.763588422 307.759887507 -147.046701637 268.39453125 -104.787109375 c 0
 243.622597581 -80.9418664237 207.839691172 -72.7757659199 173.268502309 -72.7757659199 c 0
 144.091302599 -72.7757659199 127.599480826 -76.0417923477 111.161132812 -90 c 1
 66.9697265625 -60.4677734375 l 1
 72.1328125 -48.9638671875 85.38671875 -30.9013671875 106.049804688 -22.8515625 c 1
 126.342773438 0.2412109375 l 1
 68.9228515625 30.4013671875 29.1611328125 115.916015625 29.1611328125 191 c 0
EndSplineSet
Validated: 524289
EndChar

StartChar: F
Encoding: 70 70 49
Width: 324
VWidth: 0
Flags: W
HStem: -15 21G<64.1816 117.015> 200 49<115.632 258> 207.092 37.5137<115.628 251.199> 420 54<152.8 299> 421.892 42.1084<110.829 239.2>
VStem: 51 62.8311<9.0714 207.092 244.605 301.381> 59 60<321 420.85>
LayerCount: 2
Fore
SplineSet
51 154 m 27xa4
 51 219 59 321 59 321 c 2
 59 402 45 440 45 440 c 1
 88 464 l 1xaa
 304 474 l 1
 323 455 l 1
 299 420 l 1x92
 110.829101562 421.891601562 l 1
 114.671875 400.057617188 119 364.484375 119 315 c 2
 115.627929688 244.60546875 l 1xaa
 258 249 l 1
 275 230 l 1
 253 200 l 1xc2
 113.831054688 207.091796875 l 1
 111 148 l 3
 111 107.294921875 124.181640625 9 124.181640625 9 c 1
 81.181640625 -15 l 1
 64.181640625 1 l 1
 64.181640625 1 51 94 51 154 c 27xa4
EndSplineSet
Validated: 524289
EndChar

StartChar: P
Encoding: 80 80 50
Width: 411
VWidth: 0
Flags: W
HStem: -15 21G<96.1816 149.015> 179 39.0488<147.633 269.016> 440 37.6816<139.626 291.804>
VStem: 83 60<9.0714 148 222.43 325.962> 330 66<279.398 405.132>
LayerCount: 2
Fore
SplineSet
42 410 m 1
 20 434 l 1
 20 434 111.78515625 477.681640625 227.502929688 477.681640625 c 0
 292.586914062 477.681640625 396 463.358398438 396 356 c 0
 396 268 322 179 146 179 c 0
 145.739257812 179 145.478515625 179.000976562 145.21875 179.000976562 c 0
 143.961914062 160.265625 143 148 143 148 c 0
 143 107.294921875 156.181640625 9 156.181640625 9 c 1
 113.181640625 -15 l 1
 96.181640625 1 l 1
 96.181640625 1 83 94 83 154 c 0
 83 163.360351562 83.166015625 173.48828125 83.4501953125 183.96875 c 1
 41.50390625 190.998046875 34 198 34 198 c 1
 34 214 l 1
 56 230 l 1
 59.2919921875 223.416015625 74 222.4296875 84.896484375 222.4296875 c 1
 87.2626953125 273.348632812 91 326 91 326 c 2
 91 370.422851562 86.7890625 401.913085938 82.986328125 421.293945312 c 1
 68.2802734375 416.576171875 54.5712890625 412.22265625 42 410 c 1
137.598632812 433.151367188 m 1
 145.46584375 377.826406582 148.282306797 317.890784303 148.282306797 245.164917118 c 0
 148.282306797 235.691349393 148.108476551 226.506975903 147.6328125 218.048828125 c 1
 245.236328125 218.610351562 330 226.790039062 330 320 c 0
 330 426 282 440 186 440 c 0
 173.135742188 440 137.598632812 433.151367188 137.598632812 433.151367188 c 1
EndSplineSet
Validated: 524289
EndChar

StartChar: R
Encoding: 82 82 51
Width: 386
VWidth: 0
Flags: W
HStem: -15 22G<71.1816 124.015 307 367.455> 200 39.0488<122.633 187.662> 440 37.6816<114.626 249.079>
VStem: 58 62.2188<9.0714 148 148.024 200.001 239.049 337.248> 66 57.2823<156.036 200.001 239.049 420.385> 286 58<295.367 408.961> 302 69<10 57.3601>
LayerCount: 2
Fore
SplineSet
112.598632812 433.151367188 m 1xec
 119.995665898 390.574508309 123.282306797 335.140434061 123.282306797 264.560427363 c 0
 123.282306797 256.039592049 123.108476551 247.506975903 122.6328125 239.048828125 c 1
 220.236328125 239.610351562 286 278.790039062 286 339 c 0
 286 404 256 440 161 440 c 0
 148.135742188 440 112.598632812 433.151367188 112.598632812 433.151367188 c 1xec
66 338 m 0
 66 382.422851562 61.7890625 401.913085938 57.986328125 421.293945312 c 1
 43.2802734375 416.576171875 29.5712890625 412.22265625 17 410 c 1
 -5 434 l 1
 -5 434 86.78515625 477.681640625 202.502929688 477.681640625 c 0
 267.586914062 477.681640625 344 451.358398438 344 368 c 0xec
 344 328.844726562 320.1796875 260.293945312 242.951171875 224.045898438 c 1
 289.137695312 156.86328125 359.793945312 51.9638671875 371 8 c 1
 332 -14 l 1
 302 10 l 1
 296.947265625 57.498046875 231.317382812 143.700195312 188.604492188 206.385742188 c 1
 168.530273438 202.293945312 146.07421875 200 121 200 c 0
 120.739257812 200 120.478515625 200.000976562 120.21875 200.000976562 c 0
 118.961914062 181.265625 118 148 118 148 c 2
 118 107.294921875 131.181640625 9 131.181640625 9 c 1
 88.181640625 -15 l 1
 71.181640625 1 l 1
 71.181640625 1 58 94 58 154 c 0xf2
 58 196.110351562 65.6123046875 323.7109375 66 338 c 0
EndSplineSet
Validated: 524289
EndChar

StartChar: K
Encoding: 75 75 52
Width: 359
VWidth: 0
Flags: W
HStem: -15 21G<55 107.833 276 336.455> 464 20G<42.1667 95>
VStem: 41 62.0544<9.04235 190.885 231.419 300.125> 49 60<231.419 459.958> 252 60<364.178 449.947> 271 69<10 54.9629>
LayerCount: 2
Back
SplineSet
280 403 m 7
 280 419 269 436 269 436 c 5
 304 476 l 5
 318 467 340 445 340 415 c 7
 340 380 243 288 194 253 c 5
 236 192 329 49 342 -2 c 5
 303 -24 l 5
 273 0 l 5
 268 47 185 169 151 218 c 5
 116 190 71 91 71 48 c 7
 71 32 82 15 82 15 c 5
 47 -25 l 5
 34 -17 13 4 13 33 c 7
 13 89 82 205 135 244 c 5
 93 303 23 401 10 452 c 5
 49 474 l 5
 79 450 l 5
 83 407 143 329 176 280 c 5
 204 305 280 380 280 403 c 7
90.0226413927 182.728984704 m 1xd0
 135.837384325 204.68407867 197 237.898801806 197 289 c 0
 197 305 186 322 186 322 c 1
 221 362 l 1
 235 353 257 331 257 301 c 0xd8
 257 266 225 232 176 197 c 1
 218 136 271 59 284 8 c 1
 245 -14 l 1
 215 10 l 1
 210 57 164 120 130 169 c 1
 132.139534884 172.209302326 l 1
 88.7797337913 147.701588664 l 1xd4
 84 13 l 1
 58 -13 l 1
 27 10 l 1xe0
 27 10 44 262 44 329 c 0
 44 410 30 583 30 583 c 1
 64 607 l 1
 81 591 l 1
 81 591 95 412 95 323 c 2
 90.0226413927 182.728984704 l 1xd0
90.0226413927 182.728984704 m 1xd0
 135.837384325 204.68407867 197 237.898801806 197 289 c 0
 197 305 186 322 186 322 c 1
 221 362 l 1
 235 353 257 331 257 301 c 0xd8
 257 266 225 232 176 197 c 1
 218 136 271 59 284 8 c 1
 245 -14 l 1
 215 10 l 1
 210 57 164 120 130 169 c 1
 132.139534884 172.209302326 l 1
 88.7797337913 147.701588664 l 1xd4
 84 13 l 1
 58 -13 l 1
 27 10 l 1xe0
 27 10 44 262 44 329 c 0
 44 410 30 583 30 583 c 1
 64 607 l 1
 81 591 l 1
 81 591 95 412 95 323 c 2
 90.0226413927 182.728984704 l 1xd0
EndSplineSet
Fore
SplineSet
149.670047556 218.172710765 m 1xc4
 103.054395192 190.885499624 l 1
 101 148 l 2
 101 67 115 9 115 9 c 1
 72 -15 l 1
 55 1 l 1
 55 1 41 65 41 154 c 1xe4
 49 321 l 2
 49 402 35 460 35 460 c 1
 78 484 l 1
 95 468 l 1
 95 468 109 404 109 315 c 1
 104.996100097 231.418589535 l 1
 156.396993985 263.88231199 252 351.630419689 252 403 c 0
 252 419 241 436 241 436 c 1
 276 476 l 1
 290 467 312 445 312 415 c 0xd8
 312 380 241 288 192 253 c 1
 234 192 327 59 340 8 c 5
 301 -14 l 5
 271 10 l 5
 265.622070312 60.552734375 191.624559364 154.947760668 149.670047556 218.172710765 c 1xc4
EndSplineSet
Validated: 524289
EndChar

StartChar: comma
Encoding: 44 44 53
Width: 155
VWidth: 0
Flags: W
HStem: -8 73<46.7054 69.0696>
VStem: 36 79<-4.28375 53.9527> 61.6953 24<-80 -51.3013>
LayerCount: 2
Back
SplineSet
79 -9 m 7
 98 -9 115 -27 115 -46 c 7
 115 -63 86 -82 69 -82 c 7
 52 -82 36 -68 36 -51 c 7
 36 -37 65 -9 79 -9 c 7
EndSplineSet
Fore
SplineSet
69.0695506827 -7.99989424873 m 1xa0
 69.0463449163 -7.99989424873 69.0231613209 -8 69 -8 c 0
 52 -8 36 6 36 23 c 0
 36 37 65 65 79 65 c 0
 98 65 115 47 115 28 c 0xc0
 115 -9.85739921015 94 -62 85.6953125 -80 c 1
 74.6953125 -90 l 1
 61.6953125 -73 l 1
 63.5370503797 -55.8126968688 66.2263721813 -33.5389567436 69.0695506827 -7.99989424873 c 1xa0
EndSplineSet
Validated: 524289
EndChar

StartChar: B
Encoding: 66 66 54
Width: 395
VWidth: 0
Flags: W
HStem: -19 45.1953<67.1562 71.668 130.281 271.095> 221 39.0488<128.633 251.618> 440 37.6816<119.057 255.079>
VStem: 64 62.2188<27.7075 129 129.053 218.638> 71.9277 56.0723<262.238 420.447> 292 58<304.957 408.961> 314 63<66.2986 186.641>
LayerCount: 2
Fore
SplineSet
127 221 m 0xf2
 126.739257812 221 126.478515625 221.000976562 126.21875 221.000976562 c 0
 124.961914062 202.265625 124 129 124 129 c 2
 124 102.713867188 129.497070312 52.41015625 133.391601562 20.0712890625 c 1
 219.938476562 22.220703125 314 40.6298828125 314 110.55078125 c 0
 314 194.983398438 264.984375 222.765625 203.534179688 222.765625 c 0
 179.745117188 222.765625 153.641601562 221 127 221 c 0xf2
11 5 m 1
 11 21 l 1
 33 37 l 1
 35.4990234375 32.001953125 47.0869140625 28.8642578125 67.15625 26.6630859375 c 2
 71.66796875 26.1953125 l 1
 68.0556640625 58.2802734375 64 101.717773438 64 135 c 0xf2
 64 175.5546875 71.060546875 314.401367188 71.927734375 335.962890625 c 0
 71.3583984375 375.166992188 67.498046875 403.39453125 63.986328125 421.293945312 c 1
 49.2802734375 416.576171875 35.5712890625 412.22265625 23 410 c 1
 1 434 l 1
 1 434 42.5107421875 453.755859375 104.895507812 466.6953125 c 0
 135.275390625 472.997070312 170.60546875 477.681640625 208.502929688 477.681640625 c 0
 273.586914062 477.681640625 350 451.358398438 350 368 c 0xec
 350 326.870117188 324.561523438 290.470703125 282.442382812 258.086914062 c 1
 331.8515625 249.2578125 377 199.55859375 377 136.55078125 c 0
 377 62.1875 314 -19 137 -19 c 0
 85.5400390625 -19 11 5 11 5 c 1
118.844726562 431.69140625 m 0
 124.586914062 411.59765625 127.251953125 387.096679688 127.861328125 342.236328125 c 0
 127.951171875 338.802734375 128 335.3828125 128 332 c 0
 128 302.938476562 128.6328125 260.048828125 128.6328125 260.048828125 c 1
 226.236328125 260.610351562 292 278.790039062 292 339 c 0xec
 292 404 262 440 167 440 c 0
 154.135742188 440 118.598632812 433.151367188 118.598632812 433.151367188 c 1
 118.598632812 433.151367188 118.686523438 432.646484375 118.844726562 431.69140625 c 0
EndSplineSet
Validated: 524289
EndChar

StartChar: period
Encoding: 46 46 55
Width: 133
VWidth: 0
Flags: W
HStem: -8 73<35.3355 99.8372>
VStem: 26 79<-1.61311 56.7802>
LayerCount: 2
Fore
SplineSet
64 65 m 3
 83 65 105 47 105 28 c 3
 105 11 81 -8 64 -8 c 3
 47 -8 26 6 26 23 c 3
 26 37 50 65 64 65 c 3
EndSplineSet
Validated: 1
EndChar

StartChar: colon
Encoding: 58 58 56
Width: 144
VWidth: 0
Flags: W
HStem: -8 73<39.3355 103.837> 254 73<39.3355 103.837>
VStem: 30 79<-1.61311 56.7802 260.387 318.78>
LayerCount: 2
Fore
SplineSet
68 327 m 3
 87 327 109 309 109 290 c 3
 109 273 85 254 68 254 c 3
 51 254 30 268 30 285 c 3
 30 299 54 327 68 327 c 3
68 65 m 3
 87 65 109 47 109 28 c 3
 109 11 85 -8 68 -8 c 3
 51 -8 30 6 30 23 c 3
 30 37 54 65 68 65 c 3
EndSplineSet
Validated: 1
EndChar

StartChar: semicolon
Encoding: 59 59 57
Width: 156
VWidth: 0
Flags: W
HStem: -8 73<46.7054 69.0696> 254 73<45.3355 109.837>
VStem: 36 79<-4.28375 53.9527 260.387 318.78> 61.6953 24<-80 -51.3013>
LayerCount: 2
Fore
SplineSet
69.0695506827 -7.99989424873 m 5xd0
 69.0463449163 -7.99989424873 69.0231613209 -8 69 -8 c 4
 52 -8 36 6 36 23 c 4
 36 37 65 65 79 65 c 4
 98 65 115 47 115 28 c 4xe0
 115 -9.85739921015 94 -62 85.6953125 -80 c 5
 74.6953125 -90 l 5
 61.6953125 -73 l 5
 63.5370503797 -55.8126968688 66.2263721813 -33.5389567436 69.0695506827 -7.99989424873 c 5xd0
74 327 m 3
 93 327 115 309 115 290 c 3
 115 273 91 254 74 254 c 3
 57 254 36 268 36 285 c 3
 36 299 60 327 74 327 c 3
EndSplineSet
Validated: 524289
EndChar

StartChar: quotesingle
Encoding: 39 39 58
Width: 121
VWidth: 0
Flags: W
HStem: 350 123
VStem: 20 79<390.834 461.953>
LayerCount: 2
Fore
SplineSet
20 431 m 0
 20 445 49 473 63 473 c 0
 82 473 99 455 99 436 c 0
 99 398.142578125 78 378 69.6953125 360 c 1
 58.6953125 350 l 1
 45.6953125 367 l 1
 45.6953125 410 20 400.373046875 20 431 c 0
EndSplineSet
Validated: 524289
EndChar

StartChar: quotedbl
Encoding: 34 34 59
Width: 245
VWidth: 0
Flags: W
HStem: 350 123
VStem: 28 79<390.834 461.953> 138 79<390.834 461.953>
LayerCount: 2
Back
SplineSet
81 431 m 4
 81 445 110 473 124 473 c 4
 143 473 160 455 160 436 c 4
 160 398.142578125 139 378 130.6953125 360 c 5
 119.6953125 350 l 5
 106.6953125 367 l 5
 106.6953125 410 81 400.373046875 81 431 c 4
EndSplineSet
Fore
SplineSet
138 431 m 0
 138 445 167 473 181 473 c 0
 200 473 217 455 217 436 c 0
 217 398.142578125 196 378 187.6953125 360 c 1
 176.6953125 350 l 1
 163.6953125 367 l 1
 163.6953125 410 138 400.373046875 138 431 c 0
28 431 m 0
 28 445 57 473 71 473 c 0
 90 473 107 455 107 436 c 0
 107 398.142578125 86 378 77.6953125 360 c 1
 66.6953125 350 l 1
 53.6953125 367 l 1
 53.6953125 410 28 400.373046875 28 431 c 0
EndSplineSet
Validated: 524289
EndChar

StartChar: parenleft
Encoding: 40 40 60
Width: 207
VWidth: 0
Flags: W
HStem: -131 56<178.95 207> 567.977 41.8965<175.766 207>
VStem: 60 48<59.8138 409.685>
LayerCount: 2
Fore
SplineSet
207 -129.223632812 m 1
 199.732421875 -130.396484375 197.389648438 -131 190 -131 c 3
 110 -131 60 85 60 178 c 3
 60 394.1953125 63 609 207 609.873046875 c 1
 212 567.9765625 l 1
 138.448242188 566.266601562 108 397.106445312 108 218 c 3
 108 85 160 -75 212 -75 c 1
 207 -129.223632812 l 1
EndSplineSet
Validated: 524289
EndChar

StartChar: hyphen
Encoding: 45 45 61
Width: 316
VWidth: 0
Flags: W
HStem: 171 41<82.677 247>
VStem: 45 230
LayerCount: 2
Fore
SplineSet
73 158 m 1
 45 171 l 25
 59 198 l 1
 124.748046875 202.251953125 186 212 255 212 c 1
 275 196 l 25
 247 171 l 1
 178.612056002 171 139.364745677 157.941393741 79.9044178196 157.941393741 c 0
 77.633349307 157.941393741 75.3327933574 157.960444079 73 158 c 1
EndSplineSet
Validated: 524289
EndChar

StartChar: parenright
Encoding: 41 41 62
Width: 217
VWidth: 0
Flags: W
HStem: -129.224 54.2236<-15 24.6426> 567.977 41.8965<-15 27.2266>
VStem: 105 52<54.9551 413.871>
LayerCount: 2
Fore
SplineSet
-15 -75 m 1
 50 -75 105 70 105 193 c 3
 105 390.422851562 67 567.9765625 -15 567.9765625 c 1
 -20 609.873046875 l 1
 118 609.873046875 157 404.795898438 157 209 c 3
 157 72.0576171875 109 -129.223632812 -20 -129.223632812 c 1
 -15 -75 l 1
EndSplineSet
Validated: 524289
EndChar

StartChar: bracketleft
Encoding: 91 91 63
Width: 200
VWidth: 0
Flags: W
HStem: -148 45.9805<107.644 205.972>
VStem: 57.5 45<-100.837 558.471>
LayerCount: 2
Fore
SplineSet
108.5 445 m 2
 102.5 18 l 2
 102.5 -35.2763671875 107.041992188 -78.6025390625 110.15234375 -102.01953125 c 1
 167.819335938 -99.412109375 206 -92.5 206 -92.5 c 2
 230 -124.75 l 1
 214 -137.5 l 1
 214 -137.5 164 -148 75 -148 c 1
 65.71484375 -112.637695312 l 1
 62.6259765625 -88.166015625 57.5 -38.185546875 57.5 24 c 2
 63.5 451 l 2
 63.5 532 55 598 55 598 c 1
 206 614.5 l 1
 230 582.25 l 1
 214 569.5 l 1
 214 569.5 169.344726562 562.173828125 102.765625 559.760742188 c 1
 105.541992188 532.439453125 108.5 492.241210938 108.5 445 c 2
EndSplineSet
Validated: 524289
EndChar

StartChar: bracketright
Encoding: 93 93 64
Width: 204
VWidth: 0
Flags: W
HStem: 567.373 40.627<-10.9693 95.5329>
VStem: 93.5 45<-101.221 564.875>
LayerCount: 2
Fore
SplineSet
144.5 455 m 2
 138.5 18 l 2
 138.5 -63 149 -121 149 -121 c 1
 140.80078125 -128.55078125 133.001953125 -136.501953125 124.75 -144 c 1
 -11 -152.5 l 1
 -35 -125.25 l 1
 -19 -112.5 l 1
 -19 -112.5 29.3759765625 -104.563476562 100.498046875 -102.490234375 c 1
 97.4443359375 -75.7041015625 93.5 -30.546875 93.5 24 c 2
 99.5 461 l 2
 99.5 505.204101562 96.373046875 542.557617188 93.5322265625 567.373046875 c 1
 31.044921875 565.111328125 -11 557.5 -11 557.5 c 2
 -35 584.75 l 1
 -19 597.5 l 1
 -19 597.5 45 608 134 608 c 1
 134 608 144.5 544 144.5 455 c 2
EndSplineSet
Validated: 524289
EndChar

StartChar: braceleft
Encoding: 123 123 65
Width: 305
VWidth: 0
Flags: MW
LayerCount: 2
Fore
SplineSet
45.025390625 237 m 1
 35 248 l 1
 63 273 l 1
 63 273 127 276 139 303 c 24
 209 470 135 475 254 604 c 1
 267 610 l 1
 285 590 l 1
 187 454 249 471 209 303 c 24
 205 287 176 248 176 248 c 1
 182 237 l 1
 190.86328125 224.337890625 205.108398438 202.865234375 207.825195312 192 c 8
 247.825195312 24 185.825195312 41 283.825195312 -95 c 1
 265.825195312 -115 l 1
 252.825195312 -109 l 1
 133.825195312 20 207.825195312 25 137.825195312 192 c 24
 125.825195312 219 61.8251953125 222 61.8251953125 222 c 1
 45.025390625 237 l 1
EndSplineSet
Validated: 524289
EndChar

StartChar: braceright
Encoding: 125 125 66
Width: 305
VWidth: 0
Flags: W
VStem: 20 250
LayerCount: 2
Fore
SplineSet
259.974609375 258 m 1
 270 247 l 1
 242 222 l 1
 242 222 178 219 166 192 c 24
 96 25 170 20 51 -109 c 1
 38 -115 l 1
 20 -95 l 1
 118 41 56 24 96 192 c 24
 100 208 129 247 129 247 c 1
 123 258 l 1
 114.13671875 270.662109375 99.8916015625 292.134765625 97.1748046875 303 c 8
 57.1748046875 471 119.174804688 454 21.1748046875 590 c 1
 39.1748046875 610 l 1
 52.1748046875 604 l 1
 171.174804688 475 97.1748046875 470 167.174804688 303 c 24
 179.174804688 276 243.174804688 273 243.174804688 273 c 1
 259.974609375 258 l 1
EndSplineSet
Validated: 524289
EndChar

StartChar: ampersand
Encoding: 38 38 67
Width: 478
VWidth: 0
Flags: W
HStem: -18 51<153.901 266.663> -10 65.494<360.441 427.163> 267.994 57.0063<115.36 185.781> 299 58<277.169 347.335> 443 37<118.459 206.57>
VStem: 35 54<108.284 247.937> 62 36<334.886 414.673> 380 56<146.734 262.122>
LayerCount: 2
Back
SplineSet
338 270 m 0
 338 287.9140625 321.415039062 303 311 303 c 0
 301.618164062 303 269.58984375 254.65625 239.8359375 195.555664062 c 1
 246.220703125 193.612304688 252.481445312 192 261 192 c 0
 304 192 338 224.479492188 338 270 c 0
213.534179688 138.543945312 m 1
 205.474609375 119.232421875 198.380859375 100.008789062 193 82 c 1
 190 16 l 1
 164 -10 l 1
 133 13 l 1
 133 13 150 116 150 183 c 0
 150 264 134 331 134 331 c 1
 168 355 l 1
 185 339 l 1
 185 339 201 266 201 177 c 1
 222.057617188 222.354492188 264.73046875 345 326 345 c 0
 353 345 385 306 385 279 c 0
 385 173.727539062 301 159 253 153 c 1
 305 115 355.983398438 56 386 56 c 0
 405 56 417 60 429 77 c 1
 452 54 l 1
 441 27 423 -10 395 -10 c 0
 338.248046875 -10 276.869140625 98.2548828125 213.534179688 138.543945312 c 1
314 34 m 3
 363.872070312 34 388.38671875 98.6123046875 388.38671875 164.028320312 c 3
 388.38671875 231.091796875 362.622070312 299 312 299 c 3
 268 299 241 255 241 255 c 1
 225 269 l 1
 225 269 271 357 330 357 c 3
 396 357 446 273 446 197 c 3
 446 120 371 -5 306 -5 c 3
 272 -5 214 31 214 31 c 1
 252 75 l 1
 256 66 274 34 314 34 c 3
207 434 m 3
 138 434 90 336 90 246 c 3
 90 113 126 44 198 44 c 3
 258 44 298 121 298 121 c 1
 320 102 l 1
 320 102 256 -19 175 -19 c 3
 120 -19 33 60.296875 33 200 c 3
 33 329 119 478 208 478 c 3
 291 478 313 429 313 429 c 1
 261 368 l 1
 255 380 243 434 207 434 c 3
EndSplineSet
Fore
SplineSet
321 88 m 1xad
 338 105 380 128.9375 380 201 c 3
 380 228 349 299 312 299 c 27
 272.49609375 299 258.796875 271.479492188 240 256 c 25
 225 269 l 17
 239 305 287 357 329 357 c 27
 387 357 436 283 436 250 c 3
 436 178 397 93 360 63 c 1
 367.892187217 57.8040578796 376.89232016 55.4939609299 385.885432963 55.4939609299 c 0
 402.719033005 55.4939609299 419.52803618 63.5879783277 429 76 c 9
 453 54 l 17
 441 34 422 -10 394 -10 c 3x5d
 370.999023438 -10 336 14.974609375 316 36 c 1
 286 8 229 -18 180 -18 c 3
 111 -18 35 77 35 167 c 27x8d
 35 225 51 249 90 282 c 1
 71 300 62 316.890625 62 359 c 3
 62 392 102 480 168 480 c 3
 200.026367188 480 231.442382812 465.408203125 261 445 c 25
 224 404 l 17
 216 420 188 443 172 443 c 3
 127 443 98 421 98 368 c 3x8b
 98 345 120 325 143 325 c 27
 163 325 166 325 184 332 c 9
 207 310 l 25
 179.979475377 279.119400431 170.244465532 267.993674894 138.708494538 267.993674894 c 0
 133.340032426 267.993674894 128.026138006 268.629782495 123 270 c 1
 100 240 89 214.048828125 89 173 c 3
 89 120 151 33 204 33 c 27
 240 33 269 45 291 63 c 1
 261.065429688 95.5185546875 203.7890625 154.973632812 182 204 c 25
 194 228 l 25
 212 211 l 17
 241.633789062 168.186523438 279.209960938 125.391601562 321 88 c 1xad
EndSplineSet
Validated: 524289
EndChar

StartChar: question
Encoding: 63 63 68
Width: 257
VWidth: 0
Flags: W
HStem: -8 73<98.3355 162.837> 458 30<95.6667 165.74>
VStem: 40 40.0869<384.007 447.2> 70 54<164.243 253.098> 89 79<-1.61311 56.7802> 184 48<348.549 447.094>
LayerCount: 2
Back
SplineSet
127 132 m 7
 146 132 168 114 168 95 c 7
 168 78 144 59 127 59 c 7
 110 59 89 73 89 90 c 7
 89 104 113 132 127 132 c 7
62 395 m 1
 84 375 l 1
 84 375 117 436 171 436 c 3
 202 436 227 413 227 395 c 3
 227 341 79 311 79 220 c 3
 79 172 139 139 175 139 c 3
 224.163085938 139 260 172 260 172 c 1
 246 217 l 1
 221 214 l 1
 221 214 202 169 179 169 c 3
 143 169 131 195 131 214 c 3
 131 264 275 298 275 380 c 3
 275 419 225 491 168 491 c 3
 117 491 62 395 62 395 c 1
134 379 m 1
 99 357 l 1
 99 357 83 377 83 395 c 0
 83 445 146.87109375 486 201 486 c 0
 249 486 275 438 275 400 c 0
 275 318 270 299 270 217 c 0
 270 204.237304688 270.615234375 185 277 185 c 3
 286 185 292 187 296 194 c 1
 324 163 l 1
 309 149 295 130 269 130 c 3
 247.977539062 130 226.954101562 153.080078125 216.254882812 177.216796875 c 1
 196.4765625 156.408203125 175.565429688 133 141 133 c 0
 106.737304688 133 55 182.3671875 55 216 c 0
 55 299.45703125 170 357 220 384 c 1
 220 384 222 402 222 413 c 0
 222 430 216 453 191 453 c 0
 153 453 123 435 123 405 c 0
 123 394 134 379 134 379 c 1
217 345 m 1
 185 330 112 282.931640625 112 223 c 0
 112 203.686523438 129 189 146 189 c 0
 174 189 194 202 210 219 c 1
 217 345 l 1
EndSplineSet
Fore
SplineSet
151.934570312 153.35546875 m 1xd4
 139.045898438 133.81640625 l 1
 95.6669921875 155.3359375 70 176.584960938 70 213 c 3xd4
 70 289 184 339 184 393 c 3
 184 438 159 458 128 458 c 3
 93.2861328125 458 80.0869140625 420.6171875 80.0869140625 403.201171875 c 3
 80.0869140625 393.525390625 86 378 86 378 c 1
 56 390 l 1
 56 390 40 394 40 416 c 3xe4
 40 449 80.544921875 488 142 488 c 3
 208 488 232 431 232 392 c 3
 232 320 124 258 124 208 c 3
 124 170.301757812 151.934570312 153.35546875 151.934570312 153.35546875 c 1xd4
127 65 m 3
 146 65 168 47 168 28 c 3
 168 11 144 -8 127 -8 c 3
 110 -8 89 6 89 23 c 3xcc
 89 37 113 65 127 65 c 3
EndSplineSet
Validated: 524289
EndChar

StartChar: exclam
Encoding: 33 33 69
Width: 205
VWidth: 0
Flags: W
HStem: -8 73<80.3355 144.837>
VStem: 71 79<-1.61311 56.7802 212.802 461.953>
LayerCount: 2
Back
SplineSet
108.5 135 m 3
 127.5 135 149.5 117 149.5 98 c 3
 149.5 81 125.5 62 108.5 62 c 3
 91.5 62 70.5 76 70.5 93 c 3
 70.5 107 94.5 135 108.5 135 c 3
EndSplineSet
Fore
SplineSet
109 65 m 3
 128 65 150 47 150 28 c 3
 150 11 126 -8 109 -8 c 3
 92 -8 71 6 71 23 c 3
 71 37 95 65 109 65 c 3
71 431 m 0
 71 445 100 473 114 473 c 0
 133 473 150 455 150 436 c 0
 150 398.142578125 129 167 120.6953125 149 c 1
 109.6953125 139 l 1
 96.6953125 156 l 1
 96.6953125 199 71 400.373046875 71 431 c 0
EndSplineSet
Validated: 524289
EndChar

StartChar: asterisk
Encoding: 42 42 70
Width: 342
VWidth: 0
Flags: W
HStem: 227.859 91.3937<82.046 137.064> 309.451 77.0491<234.044 302.058> 339.132 81.1434<46.9787 114.095> 351.407 21G<159.56 181.979>
VStem: 58.3712 79.1923<230.371 296.42> 160.902 64.3135<384.179 451.902> 172.478 78.6808<210.846 279.644>
LayerCount: 2
Fore
SplineSet
264.539593599 309.450842125 m 0x48
 236.178233097 309.450842125 216.763212894 324.614008281 200.926757812 328.587890625 c 1
 189.33984375 337.73828125 l 1
 204.109375 352.396484375 l 1
 246.91796875 359.064453125 233.822265625 382.697265625 263.944335938 386.524414062 c 0
 264.041323529 386.507400382 264.139985766 386.499914212 264.2409317 386.499914212 c 0
 264.981325934 386.499914212 265.844573452 386.902638733 267.070986151 386.902638733 c 0
 267.376144709 386.902638733 267.703787706 386.87770508 268.057617188 386.815429688 c 0
 285.675164273 383.708452047 310.999747912 363.0394393 310.999747912 344.193202489 c 0
 310.999747912 330.378443252 298.250284489 309.450842125 264.539593599 309.450842125 c 0x48
215.883463061 203.629276082 m 0
 188.351125837 203.629276082 172.477976825 230.17461842 172.477976825 264.915695417 c 0
 172.477976825 279.695609378 175.411132812 293.330078125 175.411132812 303.923828125 c 4
 180.942382812 318.911132812 l 5
 199.423828125 308.543945312 l 1
 219.909721452 267.644901764 251.158815399 286.605967997 251.158815399 256.064742365 c 0x0a
 251.158815399 239.719935651 243.061857261 203.629276082 215.883463061 203.629276082 c 0
100.508313346 227.8592041 m 0x88
 80.8986372383 227.8592041 58.3711834707 232.765945124 58.3711834707 259.001271384 c 0
 58.3711834707 267.729364957 60.8315862489 278.299083011 69.83984375 287.729492188 c 0
 97.8740234375 314.264648438 125.969726562 312.357421875 144.448242188 319.252929688 c 1
 159.393554688 317.633789062 l 1
 155.747070312 296.952148438 l 1
 144.625976562 285.712890625 140.109375 277.370117188 138.893554688 270.4765625 c 0
 137.677734375 263.583007812 138.60546875 257.327148438 137.563476562 251.41796875 c 0
 134.588311106 234.54500842 119.245227524 227.8592041 100.508313346 227.8592041 c 0x88
40.0497580479 392.254448773 m 0
 40.0497580479 415.726526039 66.2150334721 420.275148873 75.251224104 420.275148873 c 0
 79.2987179178 420.275148873 84.3098878702 419.784956467 91.4296875 415.928710938 c 0
 124.798828125 397.859375 132.1015625 370.170898438 144.616210938 354.763671875 c 1
 148.094726562 339.934570312 l 1
 127.182617188 336.513671875 l 1
 124.866057757 337.881345932 112.806697272 344.651703413 101.083655309 344.651703413 c 0
 90.1376101237 344.651703413 83.6184399686 339.131717277 74.1721262767 339.131717277 c 0x28
 42.1107537387 339.131717277 40.0497580479 391.62307245 40.0497580479 392.254448773 c 0
145.322396098 430.05752417 m 0
 145.322396098 457.216921527 185.859969199 471.851614507 193.465346717 471.851614507 c 0
 206.044705963 471.851614507 225.215752464 456.472642375 225.215752464 434.69507185 c 0
 225.215752464 432.78342926 225.055130893 430.871901118 224.721679688 428.98046875 c 0
 218.123046875 391.55859375 192.984375 375.682617188 181.979492188 359.344726562 c 1
 169.41015625 351.407226562 l 1
 159.559570312 370.40625 l 1
 160.498083758 375.728870788 160.902245056 380.295483955 160.902245056 384.272671037 c 0x1c
 160.902245056 408.966036254 145.322396098 410.937855841 145.322396098 430.05752417 c 0
EndSplineSet
Validated: 524289
EndChar

StartChar: asciicircum
Encoding: 94 94 71
Width: 357
VWidth: 0
Flags: W
HStem: 312 165
VStem: 25 307
LayerCount: 2
Fore
SplineSet
61 320 m 5
 31 312 l 5
 25 341 l 5
 72 386 113 433 165 477 c 5
 166 478 l 4
 202 472 l 5
 248 418 284 396 324 347 c 5
 332 317 l 5
 302 311 l 5
 261 354 219 391 179 436 c 5
 129 393 108 358 61 320 c 5
EndSplineSet
Validated: 1
EndChar

StartChar: bar
Encoding: 124 124 72
Width: 224
VWidth: 0
Flags: W
VStem: 85 41<478.232 672> 99 40<-172 13.8891>
LayerCount: 2
Fore
SplineSet
139 -172 m 2x40
 126 -200 l 25x80
 99 -186 l 1x40
 95 -120 85 611 85 680 c 1
 101 700 l 25
 126 672 l 1x80
 126 603 139 -61 139 -163 c 0
 139 -167 139 -170 139 -172 c 2x40
EndSplineSet
Validated: 1
EndChar

StartChar: slash
Encoding: 47 47 73
Width: 233
VWidth: 0
Flags: W
VStem: -16 259
LayerCount: 2
Fore
SplineSet
-16 -98 m 1
 31 59 151 447 200 604 c 1
 243 604 l 1
 200 465 77 62 27 -98 c 1
 -16 -98 l 1
EndSplineSet
Validated: 1
EndChar

StartChar: backslash
Encoding: 92 92 74
Width: 220
VWidth: 0
Flags: W
VStem: -20 259
LayerCount: 2
Fore
SplineSet
239 -98 m 1
 195 -98 l 1
 145 62 23 465 -20 604 c 1
 23 604 l 1
 72 447 192 59 239 -98 c 1
EndSplineSet
Validated: 1
EndChar

StartChar: plus
Encoding: 43 43 75
Width: 277
VWidth: 0
Flags: W
HStem: 157.926 47.8173<52.1376 114.801> 168 47<164.714 226>
VStem: 111.926 47.6175<210.868 271.862> 122 47<98 160.958>
LayerCount: 2
Fore
SplineSet
52 158 m 1x90
 24 171 l 1
 38 198 l 1
 64.0784785049 199.686505888 89.4496073554 202.709662947 114.877444838 205.743795316 c 1x90
 113.218678637 223.929615143 111.926490177 242.395135756 111.926490177 263.341343704 c 0
 111.926490177 266.180170274 111.950225369 269.064562637 112 272 c 1
 125 300 l 1
 152 286 l 1
 153.649476515 260.49410752 156.577552833 235.664844176 159.543970564 210.797382366 c 1
 183.710183353 213.23400732 208.318421463 215 234 215 c 1
 254 196 l 1
 226 168 l 1x60
 202.875622491 168 183.083053223 166.825170623 164.714237599 165.277931943 c 1
 167.193730585 140.847751073 169 115.972785508 169 90 c 1
 150 70 l 1
 122 98 l 1
 122 121.827723459 120.752617064 142.117877271 119.135739544 160.957970158 c 1
 100.665256108 159.260687934 81.9426236821 157.926490177 60.6586562965 157.926490177 c 0
 57.8198297262 157.926490177 54.9354373632 157.950225369 52 158 c 1x90
EndSplineSet
Validated: 524289
EndChar

StartChar: endash
Encoding: 8211 8211 76
Width: 510
VWidth: 0
Flags: W
HStem: 162.949 35.0511<68 250.875> 176 36<250.875 442>
LayerCount: 2
Fore
SplineSet
68 163 m 1x80
 40 176 l 25x40
 54 198 l 1x80
 120 202 381 212 450 212 c 1
 470 196 l 25
 442 176 l 1x40
 373.448275862 176 147.350772889 162.948870392 75.1344458567 162.948870392 c 0
 72.5552913199 162.948870392 70.1724137931 162.965517241 68 163 c 1x80
EndSplineSet
Validated: 524289
EndChar

StartChar: emdash
Encoding: 8212 8212 77
Width: 905
VWidth: 0
Flags: W
HStem: 162.949 35.0511<68 253.967> 176 36<648.099 842>
LayerCount: 2
Fore
SplineSet
68 163 m 1x80
 40 176 l 25x40
 54 198 l 1x80
 120 202 781 212 850 212 c 1
 870 196 l 25
 842 176 l 1x40
 773.448275862 176 174.461355529 162.948870392 76.5285169544 162.948870392 c 0
 73.0309155767 162.948870392 70.1724137931 162.965517241 68 163 c 1x80
EndSplineSet
Validated: 524289
EndChar

StartChar: quoteright
Encoding: 8217 8217 78
Width: 119
VWidth: 0
Flags: W
HStem: 402 73<30.7054 53.0693>
VStem: 20 79<404.672 463.953> 45.6953 24<351 373.96>
LayerCount: 2
Fore
SplineSet
53.0693359375 402 m 1xa0
 53.0458984375 402 53.0234375 402 53 402 c 0
 36 402 20 416 20 433 c 0
 20 447 49 475 63 475 c 0
 82 475 99 457 99 438 c 0xc0
 99 400.142578125 78 369 69.6953125 351 c 1
 58.6953125 341 l 1
 45.6953125 358 l 1
 47.537109375 375.1875 50.2265625 376.4609375 53.0693359375 402 c 1xa0
EndSplineSet
Validated: 524289
EndChar

StartChar: quoteleft
Encoding: 8216 8216 79
Width: 119
VWidth: 0
Flags: W
HStem: 341 73<65.9307 88.2946>
VStem: 20 79<352.047 411.328> 49.3047 24<442.04 465>
LayerCount: 2
Fore
SplineSet
65.9306640625 414 m 1xa0
 65.9541015625 414 65.9765625 414 66 414 c 0
 83 414 99 400 99 383 c 0
 99 369 70 341 56 341 c 0
 37 341 20 359 20 378 c 0xc0
 20 415.857421875 41 447 49.3046875 465 c 1
 60.3046875 475 l 1
 73.3046875 458 l 1
 71.462890625 440.8125 68.7734375 439.5390625 65.9306640625 414 c 1xa0
EndSplineSet
Validated: 524289
EndChar

StartChar: quotedblleft
Encoding: 8220 8220 80
Width: 238
VWidth: 0
Flags: W
HStem: 341 73<75.9307 98.2946 179.931 202.295>
VStem: 30 79<352.047 411.328> 59.3047 24<442.04 465> 134 79<352.047 411.328> 163.305 24<442.04 465>
LayerCount: 2
Fore
SplineSet
179.930664062 414 m 1x88
 179.954101562 414 179.9765625 414 180 414 c 0
 197 414 213 400 213 383 c 0
 213 369 184 341 170 341 c 0
 151 341 134 359 134 378 c 0x90
 134 415.857421875 155 447 163.3046875 465 c 1
 174.3046875 475 l 1
 187.3046875 458 l 1
 185.462890625 440.8125 182.7734375 439.5390625 179.930664062 414 c 1x88
75.9306640625 414 m 1
 75.9541015625 414 75.9765625 414 76 414 c 0
 93 414 109 400 109 383 c 0
 109 369 80 341 66 341 c 0
 47 341 30 359 30 378 c 0xc0
 30 415.857421875 51 447 59.3046875 465 c 1
 70.3046875 475 l 1
 83.3046875 458 l 1xa0
 81.462890625 440.8125 78.7734375 439.5390625 75.9306640625 414 c 1
EndSplineSet
Validated: 524289
EndChar

StartChar: quotedblright
Encoding: 8221 8221 81
Width: 239
VWidth: 0
Flags: W
HStem: 402 73<30.7054 53.0693 145.705 168.069>
VStem: 20 79<404.672 463.953> 45.6953 24<351 373.96> 135 79<404.672 463.953> 160.695 24<351 373.96>
LayerCount: 2
Fore
SplineSet
168.069335938 402 m 5x88
 168.045898438 402 168.0234375 402 168 402 c 4
 151 402 135 416 135 433 c 4
 135 447 164 475 178 475 c 4
 197 475 214 457 214 438 c 4x90
 214 400.142578125 193 369 184.6953125 351 c 5
 173.6953125 341 l 5
 160.6953125 358 l 5
 162.537109375 375.1875 165.2265625 376.4609375 168.069335938 402 c 5x88
53.0693359375 402 m 1
 53.0458984375 402 53.0234375 402 53 402 c 0
 36 402 20 416 20 433 c 0
 20 447 49 475 63 475 c 0
 82 475 99 457 99 438 c 0xc0
 99 400.142578125 78 369 69.6953125 351 c 1
 58.6953125 341 l 1
 45.6953125 358 l 1xa0
 47.537109375 375.1875 50.2265625 376.4609375 53.0693359375 402 c 1
EndSplineSet
Validated: 524289
EndChar

StartChar: at
Encoding: 64 64 82
Width: 424
VWidth: 0
Flags: W
HStem: -25 46<171.386 317.307> 142 40<163.443 228.569> 151 46<279.066 337.317> 282 29<175.789 243.575> 426 46<148.937 275.203>
VStem: 31 56<115.232 341.262> 124 36<184.517 269.248> 241 35<203.012 266.534> 343.004 54.9963<199.121 354.666>
LayerCount: 2
Back
SplineSet
195 428 m 7
 120 428 89 331 89 231 c 7
 89 98 141 45 193 45 c 7
 278 45 306 140 306 233 c 7
 306 360 279 428 195 428 c 7
30 191 m 7
 30 308 93 472 217 472 c 7
 277.208007812 472 377 402 377 265 c 7
 377 118 279 -11 171 -11 c 7
 91 -11 30 98 30 191 c 7
EndSplineSet
Fore
SplineSet
241 214 m 9xdf80
 240 225 241 230 241 241 c 27
 241 251 242 257 244 267 c 17
 235 281 226 282 212 282 c 27
 177 282 160 256 160 221 c 27
 160 204 169 182 186 182 c 27
 214 182 221 190 241 214 c 9xdf80
346 50 m 9
 364 35 l 17
 338 4 292 -25 238 -25 c 3
 135.991936008 -25 31 50.9853515625 31 199 c 3
 31 391 121 472 222 472 c 3
 333 472 398 382 398 271 c 27
 398 206 355 151 311 151 c 3xbf80
 285 151 266 165 256 190 c 1
 241 171 214 142 178 142 c 27xdf80
 145 142 124 175 124 208 c 27
 124 259 158 311 209 311 c 3
 240 311 251 293 256 283 c 9
 280 302 l 25
 290 285 l 25
 288 267 276 249 276 231 c 27
 276 213 295 197 313 197 c 3xbf80
 342.121212121 197 343.003673095 240.20784012 343.003673095 281.950970514 c 0
 343.003673095 365.930147448 267.336202405 426 213 426 c 3
 133 426 87 350 87 215 c 3
 87 113 146 21 244 21 c 3
 285 21 319 30 346 50 c 9
EndSplineSet
Validated: 524289
EndChar

StartChar: equal
Encoding: 61 61 83
Width: 320
VWidth: 0
Flags: W
HStem: 101 46<86.1072 247> 231 46<86.1072 247>
VStem: 45 230
LayerCount: 2
Fore
SplineSet
73 223 m 1
 45 236 l 25
 59 263 l 1
 124.748046875 267.251953125 186 277 255 277 c 1
 275 261 l 25
 247 231 l 1
 179.970691318 231 140.935667472 222.91148559 83.4246937424 222.91148559 c 0
 80.0178508472 222.91148559 76.5461729471 222.939869455 73 223 c 1
73 93 m 1
 45 106 l 25
 59 133 l 1
 124.748046875 137.251953125 186 147 255 147 c 1
 275 131 l 25
 247 101 l 1
 179.970691319 101 140.935667474 92.9114855898 83.4246937463 92.9114855898 c 0
 80.0178508498 92.9114855898 76.5461729485 92.939869455 73 93 c 1
EndSplineSet
Validated: 524289
EndChar

StartChar: underscore
Encoding: 95 95 84
Width: 330
VWidth: 0
Flags: W
HStem: -125 40<13 327>
LayerCount: 2
Fore
SplineSet
13 -125 m 1
 -15 -112 l 25
 -1 -85 l 1
 335 -85 l 1
 355 -101 l 25
 327 -126 l 1
 13 -125 l 1
EndSplineSet
Validated: 1
EndChar

StartChar: asciitilde
Encoding: 126 126 85
Width: 335
VWidth: 0
Flags: W
HStem: 147.199 44.4609<159.909 251.91> 185.223 47.7451<78.5201 163.212>
VStem: 50 230
LayerCount: 2
Fore
SplineSet
71 157 m 1x60
 50 171 l 17
 50 171 83.8203125 232.967773438 113 232.967773438 c 3x60
 135.913085938 232.967773438 186.727539062 191.66015625 210 191.66015625 c 3
 238.135742188 191.66015625 256 214.475585938 256 215 c 1
 280 196 l 17
 280 196 238.762695312 147.19921875 208 147.19921875 c 3xa0
 183.567382812 147.19921875 144.969726562 185.22265625 113 185.22265625 c 3
 83.677734375 185.22265625 71 157 71 157 c 1x60
EndSplineSet
Validated: 524289
EndChar

StartChar: less
Encoding: 60 60 86
Width: 244
VWidth: 0
Flags: W
HStem: 47 252
VStem: 35 163
LayerCount: 2
Back
SplineSet
152 272 m 5xb0
 165 300 l 29x70
 192 286 l 5xb0
 196.251953125 220.251953125 206 159 206 90 c 5
 190 70 l 29
 165 98 l 5
 165 169 150.924804688 208.590820312 152 272 c 5xb0
92 158 m 5xb0
 64 171 l 29x70
 78 198 l 5xb0
 143.748046875 202.251953125 205 212 274 212 c 5
 294 196 l 29
 266 171 l 5
 195 171 155.409179688 156.924804688 92 158 c 5xb0
EndSplineSet
Fore
SplineSet
193 282 m 5
 162 249 129 214 95 179 c 5
 130 145 165 112 198 80 c 5
 172 47 l 5
 127 90 78 136 35 177 c 5
 72 216 113 258 152 299 c 5
 193 282 l 5
EndSplineSet
Validated: 1
EndChar

StartChar: greater
Encoding: 62 62 87
Width: 238
VWidth: 0
Flags: W
HStem: 47 252
VStem: 45 163
LayerCount: 2
Fore
SplineSet
50 64 m 5
 81 97 114 132 148 167 c 5
 113 201 78 234 45 266 c 5
 71 299 l 5
 116 256 165 210 208 169 c 5
 171 130 130 88 91 47 c 5
 50 64 l 5
EndSplineSet
Validated: 1
EndChar

StartChar: numbersign
Encoding: 35 35 88
Width: 351
VWidth: 0
Flags: W
HStem: 173 40<36 81 136 201.625> 280 40<63 105 159 225.827> 290 41<159.236 227 280 317>
VStem: 127 45<326.813 398> 227 45<223.39 288>
LayerCount: 2
Fore
SplineSet
36 173 m 1xb8
 8 186 l 1
 22 213 l 1
 39 214 63 216 90 217 c 1
 96 246 99 252 105 281 c 1
 89 280 75 280 63 280 c 1
 35 293 l 1
 49 320 l 1xd8
 66 321 89 323 114 324 c 1
 117 341 124 381 127 398 c 1
 172 398 l 1
 169 382 162 343 159 326 c 1
 184 327 210 329 235 330 c 1
 238 345 244 383 247 398 c 1
 292 398 l 1
 289 384 283 346 280 331 c 1
 297 331 312 332 325 332 c 1
 345 316 l 1
 317 291 l 1
 304 291 288 291 272 290 c 1
 266 260 262 252 256 222 c 1
 280 223 302 223 318 223 c 1
 338 207 l 1
 310 182 l 1
 293 182 272 181 248 180 c 1
 242 153 236 127 231 101 c 1
 186 101 l 1
 191 126 196 153 202 179 c 1
 177 178 151 176 126 175 c 1
 121 150 116 125 111 101 c 1
 66 101 l 1
 71 125 76 149 81 174 c 1
 64 174 49 173 36 173 c 1xb8
211 221 m 1
 217 251 221 258 227 288 c 1
 202 287 176 284 151 283 c 1
 145 254 142 247 136 218 c 1
 161 219 186 220 211 221 c 1
EndSplineSet
Validated: 1
EndChar

StartChar: percent
Encoding: 37 37 89
Width: 572
VWidth: 0
Flags: W
HStem: -11 54<381.775 466.084> 194 52<83.4244 167.062> 223 51<378.198 465.292> 328.68 35.3604<233.986 290.548> 432 47<79.0271 164.45>
VStem: 16 50<260.975 403.022> 316 50<57.8723 198.601> 481 54<65.7062 208.412>
LayerCount: 2
Fore
SplineSet
316 108 m 0xbf
 316 177 360 274 434 274 c 0
 486 274 535 233 535 152 c 0
 535 65 471 -11 407 -11 c 0
 349 -11 316 53 316 108 c 0xbf
421 223 m 0
 376 223 366 191 366 132 c 0
 366 71 390 43 421 43 c 0
 471 43 481 78 481 133 c 0
 481 187 465 223 421 223 c 0
16 313 m 0
 16 382 60 479 134 479 c 0
 181.5703125 479 226.629882812 444.6875 233.961914062 376.829101562 c 1
 244.622070312 368.33984375 257.275390625 364.040039062 269.799804688 364.040039062 c 0
 285.607421875 364.040039062 298.287109375 367.986328125 308.245117188 374.8515625 c 1
 317.80859375 397.221679688 341.163085938 454.219726562 347 469 c 1
 400 469 l 1
 344 330 266 160 184 0 c 1
 131 0 l 1
 187.482421875 112.250976562 241.920898438 223.478515625 291.024414062 335.146484375 c 1
 279.432617188 330.95703125 267.416015625 328.6796875 255.400390625 328.6796875 c 0
 247.5234375 328.6796875 240.111328125 329.696289062 233.18359375 331.571289062 c 1
 222.33984375 255.709960938 164.669921875 194 107 194 c 0xdf
 49 194 16 258 16 313 c 0
121 432 m 0
 76 432 66 396 66 337 c 0
 66 276 90 246 121 246 c 0
 171 246 181 283 181 338 c 0
 181 353.578125 179.66796875 367.9921875 176.716796875 380.615234375 c 0
 173.032226562 388.0859375 170.190429688 395.955078125 168.229492188 403.931640625 c 0
 158.774414062 421.473632812 143.571289062 432 121 432 c 0
EndSplineSet
Validated: 524289
EndChar

StartChar: dollar
Encoding: 36 36 90
Width: 297
VWidth: 0
Flags: W
HStem: 12.0978 53.6714<95.3013 139.421 172.275 205.562> 417.557 25.0502<107.789 132.753 164.025 192.461>
VStem: 35.6006 46.7998<323.748 396.09> 142.7 30<-42 14.187 65.8809 198.297> 231.8 43.2002<87.2903 162.561>
LayerCount: 2
Fore
SplineSet
14.900390625 129.849609375 m 2
 35.6005859375 148.75 l 1
 35.6005859375 148.75 84.125792736 77.4784482562 139.421282978 65.7691999188 c 1
 138.409152499 111.92381739 137.339637186 165.86171468 136.342829083 219.918302285 c 1
 86.4281588877 252.595245124 35.6005859375 287.247792094 35.6005859375 344.049804688 c 0
 35.6005859375 394.394262642 89.590873925 431.407678141 132.752669399 440.749365153 c 1
 132.402009472 467.890907217 132.200195312 488.681359232 132.200195312 500 c 1
 144.200195312 520 l 1
 162.950195312 492 l 1
 162.950195312 481.502260331 163.175877889 464.407645347 163.558571826 442.607254676 c 1
 218.168741169 438.21148072 257 402.549804688 257 402.549804688 c 1
 244.400390625 362.049804688 l 1
 219.200195312 366.549804688 l 1
 219.200195312 366.549804688 206.046295672 413.409122605 164.025127034 417.557034581 c 1
 164.824016971 376.597218392 165.980939163 324.745782228 167.190890301 270.402048033 c 1
 218.853908229 232.752854322 275 194.499192873 275 147.849609375 c 0
 275 106.592028923 229.887085645 35.0339011249 172.275173458 16.4589179412 c 1
 172.545535435 -3.3095261749 172.700195312 -20.1534445806 172.700195312 -33 c 0
 172.700195312 -37 172.700195312 -40 172.700195312 -42 c 2
 162.950195312 -70 l 1
 142.700195312 -56 l 1
 142.148117583 -43.8542899516 141.443644943 -19.6863148055 140.661563026 12.0978053007 c 1
 79.6519665589 16.7507521568 14.900390625 129.849609375 14.900390625 129.849609375 c 2
171.479791117 65.8808668926 m 1
 203.241690188 72.1698269639 231.799804688 94.4072177135 231.799804688 112.75 c 0
 231.799804688 148.166874663 203.708644891 173.919460826 168.784984224 198.296612327 c 1
 169.804126195 151.576297988 170.764999172 105.713697976 171.479791117 65.8808668926 c 1
133.101059057 415.11190508 m 1
 102.515515954 408.122728929 82.4003906239 388.849076122 82.400390625 370.150390625 c 0
 82.400390625 343.240045386 105.149361273 318.774826348 135.010609187 294.745261984 c 1
 134.254589061 338.807764268 133.59244287 380.439982149 133.101059057 415.11190508 c 1
EndSplineSet
Validated: 524289
EndChar

StartChar: grave
Encoding: 96 96 91
Width: 228
VWidth: 0
Flags: W
HStem: 400.722 118.149
VStem: 37.6875 129.484
LayerCount: 2
Fore
SplineSet
48.2939453125 480.686523438 m 1
 37.6875 509.678710938 l 25
 92.6787109375 518.87109375 l 1
 128.176757812 475.38671875 128.380859375 469.967773438 167.171875 421.176757812 c 1
 168 400.721679688 l 25
 140.5234375 402.842773438 l 1
 99.8115234375 441 87.8115234375 445 48.2939453125 480.686523438 c 1
EndSplineSet
Validated: 524289
EndChar

StartChar: one
Encoding: 49 49 92
Width: 183
VWidth: 0
Flags: W
HStem: -15 21G<72 126.5>
LayerCount: 2
Fore
SplineSet
128 270 m 0
 120 148 l 0
 120 67 134 9 134 9 c 1
 89 -15 l 1
 72 1 l 1
 72 1 58 65 58 154 c 0
 66 276 l 0
 66 357 52 415 52 415 c 1
 97 439 l 1
 114 423 l 1
 114 423 128 359 128 270 c 0
EndSplineSet
Validated: 1
EndChar

StartChar: zero
Encoding: 48 48 93
Width: 338
VWidth: 0
Flags: W
HStem: -8 50<117.753 216.175> 379 45<119.111 219.481>
VStem: 34 57<70.3412 315.74> 245 62<101.528 350.165>
LayerCount: 2
Fore
SplineSet
170 379 m 3
 114.2734375 379 91 340 91 206 c 3
 91 70 121 42 160 42 c 3
 223 42 245 82 245 211 c 3
 245 338 225 379 170 379 c 3
34 178 m 3
 34 324.323242188 89 424 181 424 c 3
 246 424 307 394 307 233 c 3
 307 64 227 -8 147 -8 c 3
 74.97265625 -8 34 49 34 178 c 3
EndSplineSet
Validated: 524289
EndChar

StartChar: three
Encoding: 51 51 94
Width: 262
VWidth: 0
Flags: W
HStem: -14 39<63.6768 154.152> 399 33<79.1306 151.82>
VStem: 23 40<315.326 386.216> 162 53<287.933 395.395> 184.387 57.6133<85.4435 196.08>
LayerCount: 2
Fore
SplineSet
110 25 m 0xe8
 159.872070312 25 184.38671875 66.6123046875 184.38671875 132.028320312 c 0xe8
 184.38671875 199.091796875 158.622070312 207 108 207 c 0
 86 207 77 203 77 203 c 1
 61 217 l 1
 85 239 162 281.854492188 162 334 c 0
 162 351 156 399 131 399 c 0
 93 399 63 381 63 351 c 0
 63 340 74 325 74 325 c 1
 39 303 l 1
 39 303 23 323 23 341 c 0
 23 391 86.87109375 432 141 432 c 0
 189 432 215 359 215 321 c 0xf0
 215 289.568359375 202.224609375 301.786132812 164.08203125 261.770507812 c 1
 210.30859375 253.053710938 242 225.506835938 242 165 c 0
 242 88 167 -14 102 -14 c 0
 68 -14 10 22 10 22 c 1
 48 66 l 1
 52 57 70 25 110 25 c 0xe8
EndSplineSet
Validated: 524289
EndChar

StartChar: seven
Encoding: 55 55 95
Width: 272
VWidth: 0
Flags: W
HStem: 351 54<109.434 208.354> 368 63<49.1024 140.721> 417 20G<220.75 257>
VStem: 22 237.5
LayerCount: 2
Fore
SplineSet
152 351 m 0xb0
 125 351 112.75 368 82 368 c 0
 47.5 368 55.75 368 35.5 342 c 1
 22 360 l 1
 46 400 50.5 431 87.25 431 c 0x50
 124 431 125.5 405 164.5 405 c 0
 190.75 405 209.5 421 232 437 c 1
 259.5 415 l 2
 257.794921875 413.959960938 256.047851562 412.836914062 254.26171875 411.645507812 c 2
 255 411 l 1
 117 19 l 1
 72 -33 l 1
 45 -9 l 1
 208.87890625 372.869140625 l 1
 190.909179688 360.956054688 171.481445312 351 152 351 c 0xb0
EndSplineSet
Validated: 524289
EndChar

StartChar: two
Encoding: 50 50 96
Width: 264
VWidth: 0
Flags: W
HStem: -6 53<132.279 227.746> 20 44<103.665 163.566> 400 33<93.4231 182.897>
VStem: 30.5 50<318.104 387.597> 169.5 63<260.185 396.395>
LayerCount: 2
Back
SplineSet
123.5 25 m 4
 173.372070312 25 197.88671875 89.6123046875 197.88671875 155.028320312 c 4
 197.88671875 222.091796875 172.122070312 230 121.5 230 c 4
 99.5 230 90.5 226 90.5 226 c 5
 74.5 240 l 5
 98.5 262 175.5 326.854492188 175.5 379 c 4
 175.5 396 169.5 444 144.5 444 c 4
 106.5 444 76.5 426 76.5 396 c 4
 76.5 385 87.5 370 87.5 370 c 5
 52.5 348 l 5
 52.5 348 36.5 368 36.5 386 c 4
 36.5 436 100.37109375 477 154.5 477 c 4
 202.5 477 228.5 404 228.5 366 c 4
 228.5 334.568359375 215.724609375 324.786132812 177.58203125 284.770507812 c 5
 223.80859375 276.053710938 255.5 248.506835938 255.5 188 c 4
 255.5 111 180.5 -14 115.5 -14 c 4
 81.5 -14 23.5 22 23.5 22 c 5
 61.5 66 l 5
 65.5 57 83.5 25 123.5 25 c 4
EndSplineSet
Fore
SplineSet
121 64 m 0x78
 148 64 160.25 47 191 47 c 0
 225.5 47 217.25 47 237.5 73 c 1
 251 55 l 1
 227 15 222.5 -6 185.75 -6 c 0xb8
 149 -6 147.5 20 108.5 20 c 0
 82.25 20 63.5 4 41 -12 c 1
 8.5 10 l 1
 32.5 32 169.5 192.854492188 169.5 335 c 0
 169.5 352 163.5 400 138.5 400 c 0
 100.5 400 80.5 382 80.5 352 c 0
 80.5 341 91.5 326 91.5 326 c 1
 46.5 304 l 1
 46.5 304 30.5 324 30.5 342 c 0
 30.5 392 104.37109375 433 158.5 433 c 0
 206.5 433 232.5 360 232.5 322 c 0
 232.5 292.061523438 144.702148438 117.100585938 103.399414062 61.783203125 c 1
 109.111328125 63.203125 114.977539062 64 121 64 c 0x78
EndSplineSet
Validated: 524289
EndChar

StartChar: five
Encoding: 53 53 97
Width: 286
VWidth: 0
Flags: W
HStem: -14 39<78.4268 168.902> 211 49.7705<84.9136 179.381> 381 41<101.67 256.265> 393 40<96.5771 204.819> 416 20G<241.375 268.167>
VStem: 199.137 57.6133<84.6568 192.831>
LayerCount: 2
Fore
SplineSet
98.5 433 m 0xd4
 134.5 433 176.5 422 209.5 422 c 0xe4
 227.5 422 231.25 428 251.5 436 c 1xcc
 274 409 l 1
 254.5 396 234.25 381 206.5 381 c 0xe4
 170.600585938 381 136.69140625 393 101.5 393 c 0
 99.9375 393 98.294921875 392.982421875 96.5771484375 392.932617188 c 2
 83.9892578125 248.950195312 l 1
 100.947265625 254.505859375 116.986328125 260.770507812 138.83203125 260.770507812 c 3
 234.75 260.770507812 256.75 224.506835938 256.75 164 c 0
 256.75 87 181.75 -14 116.75 -14 c 0
 82.75 -14 24.75 22 24.75 22 c 1
 62.75 66 l 1
 66.75 57 84.75 25 124.75 25 c 0
 174.622070312 25 199.13671875 65.6123046875 199.13671875 131.028320312 c 0
 199.13671875 198.091796875 158.75 211 112.75 211 c 0
 90.75 211 51.75 197 51.75 197 c 1
 35.75 211 l 1
 40.46875 279.41796875 54.0556640625 329.069335938 54.0556640625 399.337890625 c 0
 54.0556640625 409.12890625 53.791015625 410.009765625 53.203125 420 c 1
 67.201171875 427.362304688 76.8564453125 431.48046875 98.5 433 c 0xd4
EndSplineSet
Validated: 524289
EndChar

StartChar: four
Encoding: 52 52 98
Width: 318
VWidth: 0
Flags: W
HStem: -15 21G<215 259.5> 164 44<89.3809 195.781>
VStem: 201 50<9.02568 148.584> 203.994 50.2148<193.499 363.476>
LayerCount: 2
Fore
SplineSet
227.0703125 438.32421875 m 1xe0
 228 439 l 1
 245 423 l 1
 245 423 259 359 259 270 c 1
 254.208984375 191.991210938 l 1xd0
 268.305664062 193.946289062 276.732421875 199.751953125 290 217 c 1
 303 199 l 1
 286.594726562 171.658203125 271.591796875 153.194335938 251.921875 144.24609375 c 1
 251 125 l 2
 251 44 265 9 265 9 c 1
 232 -15 l 1
 215 1 l 1
 215 1 201 42 201 131 c 1
 201.455078125 140.49609375 l 1
 175.98828125 147.005859375 157.530273438 164 126 164 c 0
 100 164 72 146 40 132 c 1
 15 156 l 1
 65.6044921875 223.67578125 101.286132812 252.4765625 218 447 c 1
 227.0703125 438.32421875 l 1xe0
203.994140625 193.499023438 m 1
 209 276 l 2
 209 310.947265625 206.393554688 341.612304688 203.430664062 365.185546875 c 1
 89 205 l 1
 100 206 122 208 134 208 c 0
 154.475585938 208 179.55078125 198.223632812 203.994140625 193.499023438 c 1
EndSplineSet
Validated: 524289
EndChar

StartChar: eight
Encoding: 56 56 99
Width: 327
VWidth: 0
Flags: W
HStem: -7 53<90.0545 230.586> 394 39<115.364 220.789>
VStem: 41 57<307.868 374.911> 259 48<70.9093 148.927>
LayerCount: 2
Fore
SplineSet
285 385 m 1
 267 326 228 301 195 252 c 1
 251 211 307 183 307 133 c 0
 307 80 241 -7 163 -7 c 0
 94 -7 19 37 19 113 c 0
 19 113 106 213 121 232 c 1
 79 262 41 270 41 319 c 0
 41 384 122 433 171 433 c 0
 238 433 285 385 285 385 c 1
233 361 m 1
 223 376 205 394 177 394 c 0
 128 394 98 368 98 346 c 0
 98 314 132 300 168 272 c 1
 191 303 203 314 224 348 c 2
 233 361 l 1
63 105 m 1
 70 79 100 46 173 46 c 0
 215 46 259 75 259 99 c 0
 259 149 206 177 153 211 c 1
 63 105 l 1
EndSplineSet
Validated: 1
EndChar

StartChar: nine
Encoding: 57 57 100
Width: 265
VWidth: 0
Flags: W
HStem: 190 36<90.9386 159.521> 404 30<95.7059 161.159>
VStem: 20 59<233.086 377.104> 181.164 63.8356<172.203 227 238.497 390.116>
LayerCount: 2
Fore
SplineSet
181 227 m 1
 164 205 130 190 102 190 c 3
 53 190 20 229 20 305 c 3
 20 387 87 434 147 434 c 3
 224 434 245 386 245 285 c 3
 245 114 109 26 109 14 c 1
 79 -4 l 1
 69 8 l 1
 111 46 180 144 181 227 c 1
129 404 m 3
 92 404 79 375 79 323 c 3
 79 273 82 226 123 226 c 3
 149 226 170 242 181 267 c 1
 181.096004315 273.624297731 181.164358144 280.239378633 181.164358144 286.785957401 c 0
 181.164358144 348.429842494 175.103779938 404 129 404 c 3
EndSplineSet
Validated: 524289
EndChar

StartChar: six
Encoding: 54 54 101
Width: 287
VWidth: 0
Flags: W
HStem: -9 30<121.959 187.13> 210 31<125.891 186.684>
VStem: 36 62.8587<35.7934 193.939 204 258.641> 199 66<48.1606 204.604>
LayerCount: 2
Fore
SplineSet
99 204 m 1
 116 226 152 241 180 241 c 3
 229 241 265 202 265 126 c 3
 265 28 189 -9 129 -9 c 3
 52 -9 36 45 36 146 c 3
 36 317 172 404 172 416 c 1
 202 434 l 1
 212 422 l 1
 170 384 100 287 99 204 c 1
152 21 m 3
 199 21 199 56 199 108 c 3
 199 158 199 210 158 210 c 3
 132 210 110 189 99 164 c 1
 98.9148643934 158.125643141 98.8587210728 152.215045925 98.8587210728 146.3169568 c 0
 98.8587210728 82.9362875088 105.341915939 21 152 21 c 3
EndSplineSet
Validated: 524289
EndChar
